<?xml version="1.0" encoding="UTF-8" standalone="no"?>
<svg
   version="1.1"
   id="Capa_1"
   x="0px"
   y="0px"
   viewBox="0 0 512 512"
   style="enable-background:new 0 0 512 512;"
   xml:space="preserve"
   sodipodi:docname="anim.svg"
   inkscape:version="1.1-dev (0741f45a0b, 2020-08-20)"
   xmlns:inkscape="http://www.inkscape.org/namespaces/inkscape"
   xmlns:sodipodi="http://sodipodi.sourceforge.net/DTD/sodipodi-0.dtd"
   xmlns="http://www.w3.org/2000/svg"
   xmlns:svg="http://www.w3.org/2000/svg"><defs
   id="defs103"><marker
     style="overflow:visible;"
     id="Arrow1Lend"
     refX="0.0"
     refY="0.0"
     orient="auto"
     inkscape:stockid="Arrow1Lend"
     inkscape:isstock="true"><path
       transform="scale(0.8) rotate(180) translate(12.5,0)"
       style="fill-rule:evenodd;fill:context-stroke;stroke:context-stroke;stroke-width:1.0pt;"
       d="M 0.0,0.0 L 5.0,-5.0 L -12.5,0.0 L 5.0,5.0 L 0.0,0.0 z "
       id="path2649" /></marker></defs><sodipodi:namedview
   pagecolor="#ffffff"
   bordercolor="#666666"
   borderopacity="1"
   objecttolerance="10"
   gridtolerance="10"
   guidetolerance="10"
   inkscape:pageopacity="0"
   inkscape:pageshadow="2"
   inkscape:window-width="1920"
   inkscape:window-height="948"
   id="namedview101"
   showgrid="false"
   inkscape:snap-global="false"
   inkscape:zoom="0.28814554"
   inkscape:cx="1681.442"
   inkscape:cy="956.11406"
   inkscape:window-x="0"
   inkscape:window-y="27"
   inkscape:window-maximized="1"
   inkscape:current-layer="Capa_1" />
<path
   style="fill:#FFE2A8;"
   d="M388.186,19.271l5.074,94.922h10.149l15.223-15.223c8.865-8.865,15.223-20.507,15.223-34.03  C433.855,39.719,413.409,19.271,388.186,19.271z"
   id="path2" />
<path
   style="fill:#FFF0D3;"
   d="M388.186,19.271c-25.222,0-45.669,20.447-45.669,45.669v11.196l20.297,7.611l-20.297,7.611v22.834  h50.743l5.074-15.223c2.955-8.865,5.074-20.507,5.074-34.03C403.409,39.719,396.593,19.271,388.186,19.271z"
   id="path4" />
<g
   id="g10">
	<path
   style="fill:#353535;"
   d="M370.426,83.748c0-4.205-3.408-7.611-7.612-7.611h-20.297v15.223h20.297   C367.018,91.359,370.426,87.952,370.426,83.748z"
   id="path6" />
	<circle
   style="fill:#353535;"
   cx="389.709"
   cy="57.878"
   r="15.223"
   id="circle8" />
</g>
<path
   style="fill:#C27749;"
   d="M68.503,395.82C30.73,395.82,0,365.09,0,327.317s30.73-68.503,68.503-68.503  s68.503,30.73,68.503,68.503S106.277,395.82,68.503,395.82z M68.503,274.036c-29.379,0-53.28,23.902-53.28,53.28  c0,29.378,23.901,53.28,53.28,53.28s53.28-23.902,53.28-53.28C121.784,297.938,97.883,274.036,68.503,274.036z"
   id="path12" />
<path
   style="fill:#E18F4E;"
   d="M68.503,365.374c-29.379,0-53.28-23.902-53.28-53.28c0-29.378,23.901-53.28,53.28-53.28  s53.28,23.902,53.28,53.28C121.784,341.472,97.883,365.374,68.503,365.374z M68.503,274.036c-20.985,0-38.057,17.072-38.057,38.057  s17.072,38.057,38.057,38.057s38.057-17.072,38.057-38.057S89.489,274.036,68.503,274.036z"
   id="path14" />
<path
   style="fill:#A45E43;"
   d="M159.841,167.475c-54.561,0-98.949,44.388-98.949,98.949c0,4.205,3.408,7.611,7.611,7.611  s7.611-3.407,7.611-7.611c0-46.166,37.559-83.726,83.726-83.726h60.892v-15.223H159.841z"
   id="path16" />
<path
   style="fill:#85453D;"
   d="M357.74,137.029h-15.223c-4.204,0-7.612,3.407-7.612,7.611c0,4.205,3.408,7.611,7.612,7.611h15.223  c4.197,0,7.611,3.414,7.611,7.611c0,4.197-3.414,7.612-7.611,7.612H220.733v15.223H357.74c12.591,0,22.834-10.244,22.834-22.835  C380.575,147.273,370.332,137.029,357.74,137.029z"
   id="path18" />
<polygon
   style="fill:#A45E43;"
   points="258.791,286.35 243.568,286.35 243.568,425.726 258.791,446.024 "
   id="polygon20" />
<path
   style="fill:#60312C;"
   d="M299.254,484.469l-17.627-5.876v-52.866h-38.059v50.741c0,3.276,2.097,6.185,5.204,7.221  l45.667,15.223c3.986,1.329,8.299-0.826,9.628-4.815C305.397,490.109,303.241,485.798,299.254,484.469z"
   id="path22" />
<polygon
   style="fill:#C27749;"
   points="182.676,286.35 197.899,286.35 197.899,425.726 182.676,446.024 "
   id="polygon24" />
<path
   style="fill:#85453D;"
   d="M142.214,484.469l17.627-5.876v-52.866h38.057v50.741c0,3.276-2.097,6.185-5.204,7.221  l-45.667,15.223c-3.986,1.329-8.299-0.826-9.628-4.815C136.07,490.109,138.226,485.798,142.214,484.469z"
   id="path26" />
<path
   style="fill:#FFE2A8;"
   d="M512,354.718c0-16.745-13.701-30.446-30.446-30.446l-30.446,91.338L512,385.164V354.718z"
   id="path28" />
<polygon
   style="fill:#FFCB63;"
   points="451.108,385.164 481.554,476.502 512,476.502 512,385.164 "
   id="polygon30" />
<path
   style="fill:#FFE2A8;"
   d="M327.294,354.718c0-16.745,13.701-30.446,30.446-30.446l30.446,91.338l-60.892-30.446V354.718z"
   id="path32" />
<polygon
   style="fill:#FFCB63;"
   points="388.186,385.164 357.74,476.502 327.294,476.502 327.294,385.164 "
   id="polygon34" />
<polygon
   style="fill:#C27749;"
   points="481.554,324.272 357.74,324.272 357.74,385.164 419.647,446.056 481.554,385.164 "
   id="polygon36" />
<rect
   x="357.74"
   y="385.162"
   style="fill:#A45E43;"
   width="123.814"
   height="91.338"
   id="rect38" />
<path
   style="fill:#FFE2A8;"
   d="M434.87,369.941c0-8.407-6.816-15.223-15.223-15.223s-15.223,6.816-15.223,15.223v15.223  l15.223,15.223l15.223-15.223V369.941z"
   id="path40" />
<path
   style="fill:#FFCB63;"
   d="M404.424,385.164v15.223c0,8.407,6.816,15.223,15.223,15.223s15.223-6.816,15.223-15.223v-15.223  H404.424z"
   id="path42" />
<path
   style="fill:#A45E43;"
   d="M205.51,230.904l15.223,91.338c25.222,0,45.669-20.447,45.669-45.669L205.51,230.904z"
   id="path44" />
<path
   style="fill:#C27749;"
   d="M175.064,276.573c0,25.222,20.447,45.669,45.669,45.669v-91.338L175.064,276.573z"
   id="path46" />
<polygon
   style="fill:#60312C;"
   points="220.733,276.573 266.402,276.573 266.402,246.127 205.51,215.681 "
   id="polygon48" />
<polygon
   style="fill:#85453D;"
   points="220.733,276.573 175.064,276.573 175.064,246.127 220.733,215.681 "
   id="polygon50" />
<polygon
   style="fill:#FFE2A8;"
   points="251.179,154.786 220.733,154.777 190.287,200.446 220.733,246.107 251.179,246.115   266.402,200.451 "
   id="polygon52" />
<polygon
   style="fill:#FFF0D3;"
   points="220.733,154.777 190.287,154.786 175.064,200.451 190.287,246.115 220.733,246.107 "
   id="polygon54" />
<path
   style="fill:#A45E43;"
   d="M180.145,154.789c-11.21,0-20.297,9.087-20.297,20.297l-0.006,135.521h30.446V154.789H180.145z"
   id="path56" />
<path
   style="fill:#85453D;"
   d="M261.328,154.789h-10.149v155.818h30.446V175.087C281.625,163.878,272.538,154.789,261.328,154.789z"
   id="path58" />
<path
   style="fill:#FFB4A9;"
   d="M220.733,32.993v91.338c25.222,0,45.669-20.447,45.669-45.669S245.956,32.993,220.733,32.993z"
   id="path60" />
<path
   style="fill:#FFD9D4;"
   d="M235.956,78.662c0-25.222-6.816-45.669-15.223-45.669c-25.222,0-45.669,20.447-45.669,45.669  s20.447,45.669,45.669,45.669C229.141,124.331,235.956,103.885,235.956,78.662z"
   id="path62" />
<polygon
   style="fill:#85453D;"
   points="246.105,12.696 228.17,12.696 210.544,32.994 233.357,53.292 258.713,53.292 "
   id="polygon64" />
<polygon
   style="fill:#A45E43;"
   points="195.362,12.696 182.755,53.292 233.357,53.292 228.17,12.696 "
   id="polygon66" />
<path
   style="fill:#85453D;"
   d="M296.848,60.902h-152.23c-4.204,0-7.611-3.407-7.611-7.611s3.408-7.611,7.611-7.611h152.23  c4.204,0,7.612,3.407,7.612,7.611S301.052,60.902,296.848,60.902z"
   id="path68" />
<g
   id="g70">
</g>
<g
   id="g72">
</g>
<g
   id="g74">
</g>
<g
   id="g76">
</g>
<g
   id="g78">
</g>
<g
   id="g80">
</g>
<g
   id="g82">
</g>
<g
   id="g84">
</g>
<g
   id="g86">
</g>
<g
   id="g88">
</g>
<g
   id="g90">
</g>
<g
   id="g92">
</g>
<g
   id="g94">
</g>
<g
   id="g96">
</g>
<g
   id="g98">
</g>
<g
   id="g197"><path
     style="fill:#ffe2a8"
     d="m 935.75522,24.123136 5.074,94.922004 h 10.149 l 15.223,-15.223 c 8.865,-8.865004 15.223,-20.507004 15.223,-34.030004 0,-25.221 -20.446,-45.669 -45.669,-45.669 z"
     id="path105" /><path
     style="fill:#fff0d3"
     d="m 935.75522,24.123136 c -25.222,0 -45.669,20.447 -45.669,45.669 v 11.196 l 20.297,7.611 -20.297,7.611 v 22.834004 h 50.743 l 5.074,-15.223 c 2.955,-8.865004 5.074,-20.507004 5.074,-34.030004 10e-4,-25.22 -6.815,-45.668 -15.222,-45.668 z"
     id="path107" /><g
     id="g113"
     transform="translate(547.56922,4.8521361)">
	<path
   style="fill:#353535"
   d="m 370.426,83.748 c 0,-4.205 -3.408,-7.611 -7.612,-7.611 H 342.517 V 91.36 h 20.297 c 4.204,-0.001 7.612,-3.408 7.612,-7.612 z"
   id="path109" />
	<circle
   style="fill:#353535"
   cx="389.70901"
   cy="57.877998"
   r="15.223"
   id="circle111" />
</g></g><path
   style="fill:#c27749"
   d="m 616.07222,400.67214 c -37.773,0 -68.503,-30.73 -68.503,-68.503 0,-37.773 30.73,-68.503 68.503,-68.503 37.773,0 68.503,30.73 68.503,68.503 0,37.773 -30.729,68.503 -68.503,68.503 z m 0,-121.784 c -29.379,0 -53.28,23.902 -53.28,53.28 0,29.378 23.901,53.28 53.28,53.28 29.379,0 53.28,-23.902 53.28,-53.28 10e-4,-29.378 -23.9,-53.28 -53.28,-53.28 z"
   id="path115" /><path
   style="fill:#e18f4e"
   d="m 616.07222,370.22614 c -29.379,0 -53.28,-23.902 -53.28,-53.28 0,-29.378 23.901,-53.28 53.28,-53.28 29.379,0 53.28,23.902 53.28,53.28 10e-4,29.378 -23.9,53.28 -53.28,53.28 z m 0,-91.338 c -20.985,0 -38.057,17.072 -38.057,38.057 0,20.985 17.072,38.057 38.057,38.057 20.985,0 38.057,-17.072 38.057,-38.057 0,-20.985 -17.071,-38.057 -38.057,-38.057 z"
   id="path117" /><path
   style="fill:#a45e43"
   d="m 707.41022,172.32714 c -54.561,0 -98.949,44.388 -98.949,98.949 0,4.205 3.408,7.611 7.611,7.611 4.203,0 7.611,-3.407 7.611,-7.611 0,-46.166 37.559,-83.726 83.726,-83.726 h 60.892 v -15.223 h -60.891 z"
   id="path119" /><path
   style="fill:#85453d"
   d="m 905.30922,141.88114 h -15.223 c -4.204,0 -7.612,3.407 -7.612,7.611 0,4.205 3.408,7.611 7.612,7.611 h 15.223 c 4.197,0 7.611,3.414 7.611,7.611 0,4.197 -3.414,7.612 -7.611,7.612 h -137.007 v 15.223 h 137.007 c 12.591,0 22.834,-10.244 22.834,-22.835 10e-4,-12.589 -10.242,-22.833 -22.834,-22.833 z"
   id="path121" /><polygon
   style="fill:#a45e43"
   points="243.568,286.35 243.568,425.726 258.791,446.024 258.791,286.35 "
   id="polygon123"
   transform="translate(547.56922,4.8521361)" /><path
   style="fill:#60312c"
   d="m 846.82322,489.32114 -17.627,-5.876 v -52.866 h -38.059 v 50.741 c 0,3.276 2.097,6.185 5.204,7.221 l 45.667,15.223 c 3.986,1.329 8.299,-0.826 9.628,-4.815 1.33,-3.988 -0.826,-8.299 -4.813,-9.628 z"
   id="path125" /><polygon
   style="fill:#c27749"
   points="197.899,286.35 197.899,425.726 182.676,446.024 182.676,286.35 "
   id="polygon127"
   transform="translate(547.56922,4.8521361)" /><path
   style="fill:#85453d"
   d="m 689.78322,489.32114 17.627,-5.876 v -52.866 h 38.057 v 50.741 c 0,3.276 -2.097,6.185 -5.204,7.221 l -45.667,15.223 c -3.986,1.329 -8.299,-0.826 -9.628,-4.815 -1.329,-3.988 0.827,-8.299 4.815,-9.628 z"
   id="path129" /><path
   style="fill:#ffe2a8"
   d="m 1059.5692,359.57014 c 0,-16.745 -13.701,-30.446 -30.446,-30.446 l -30.44598,91.338 60.89198,-30.446 z"
   id="path131" /><polygon
   style="fill:#ffcb63"
   points="481.554,476.502 512,476.502 512,385.164 451.108,385.164 "
   id="polygon133"
   transform="translate(547.56922,4.8521361)" /><path
   style="fill:#ffe2a8"
   d="m 874.86322,359.57014 c 0,-16.745 13.701,-30.446 30.446,-30.446 l 30.446,91.338 -60.892,-30.446 v -30.446 z"
   id="path135" /><polygon
   style="fill:#ffcb63"
   points="357.74,476.502 327.294,476.502 327.294,385.164 388.186,385.164 "
   id="polygon137"
   transform="translate(547.56922,4.8521361)" /><polygon
   style="fill:#c27749"
   points="357.74,324.272 357.74,385.164 419.647,446.056 481.554,385.164 481.554,324.272 "
   id="polygon139"
   transform="translate(547.56922,4.8521361)" /><rect
   x="905.3092"
   y="390.01413"
   style="fill:#a45e43"
   width="123.814"
   height="91.337997"
   id="rect141" /><path
   style="fill:#ffe2a8"
   d="m 982.43922,374.79314 c 0,-8.407 -6.816,-15.223 -15.223,-15.223 -8.407,0 -15.223,6.816 -15.223,15.223 v 15.223 l 15.223,15.223 15.223,-15.223 z"
   id="path143" /><path
   style="fill:#ffcb63"
   d="m 951.99322,390.01614 v 15.223 c 0,8.407 6.816,15.223 15.223,15.223 8.407,0 15.223,-6.816 15.223,-15.223 v -15.223 z"
   id="path145" /><path
   style="fill:#a45e43"
   d="m 753.07922,235.75614 15.223,91.338 c 25.222,0 45.669,-20.447 45.669,-45.669 z"
   id="path147" /><path
   style="fill:#c27749"
   d="m 722.63322,281.42514 c 0,25.222 20.447,45.669 45.669,45.669 v -91.338 z"
   id="path149" /><polygon
   style="fill:#60312c"
   points="266.402,276.573 266.402,246.127 205.51,215.681 220.733,276.573 "
   id="polygon151"
   transform="translate(547.56922,4.8521361)" /><polygon
   style="fill:#85453d"
   points="175.064,276.573 175.064,246.127 220.733,215.681 220.733,276.573 "
   id="polygon153"
   transform="translate(547.56922,4.8521361)" /><polygon
   style="fill:#ffe2a8"
   points="220.733,154.777 190.287,200.446 220.733,246.107 251.179,246.115 266.402,200.451 251.179,154.786 "
   id="polygon155"
   transform="translate(547.56922,4.8521361)" /><polygon
   style="fill:#fff0d3"
   points="190.287,154.786 175.064,200.451 190.287,246.115 220.733,246.107 220.733,154.777 "
   id="polygon157"
   transform="translate(547.56922,4.8521361)" /><path
   style="fill:#a45e43"
   d="m 727.71422,159.64114 c -11.21,0 -20.297,9.087 -20.297,20.297 l -0.006,135.521 h 30.446 v -155.818 z"
   id="path159" /><path
   style="fill:#85453d"
   d="m 808.89722,159.64114 h -10.149 v 155.818 h 30.446 v -135.52 c 0,-11.209 -9.087,-20.298 -20.297,-20.298 z"
   id="path161" /><circle
   style="fill:#ff5555;stroke:none"
   id="path186"
   cx="815.39386"
   cy="98.948669"
   r="19.786329" /><path
   style="fill:#ffb4a9"
   d="m 768.30222,37.845136 v 91.338004 c 25.222,0 45.669,-20.447 45.669,-45.669004 0,-25.222 -20.446,-45.669 -45.669,-45.669 z"
   id="path163" /><path
   style="fill:#ffd9d4"
   d="m 783.52522,83.514136 c 0,-25.222 -6.816,-45.669 -15.223,-45.669 -25.222,0 -45.669,20.447 -45.669,45.669 0,25.222004 20.447,45.669004 45.669,45.669004 8.408,0 15.223,-20.446 15.223,-45.669004 z"
   id="path165" /><path
   id="path175"
   style="fill:#ff5555"
   d="m 768.30273,37.845703 c -11.92866,0 -22.78508,4.577444 -30.91992,12.066406 2.35698,28.649243 48.71628,36.461112 76.29883,38.681641 0.18475,-1.668635 0.28906,-3.362196 0.28906,-5.080078 0,-25.222 -20.44497,-45.667969 -45.66797,-45.667969 z"
   sodipodi:nodetypes="sccss" /><polygon
   style="fill:#85453d"
   points="233.357,53.292 258.713,53.292 246.105,12.696 228.17,12.696 210.544,32.994 "
   id="polygon167"
   transform="translate(547.56922,4.8521361)" /><polygon
   style="fill:#a45e43"
   points="228.17,12.696 195.362,12.696 182.755,53.292 233.357,53.292 "
   id="polygon169"
   transform="translate(547.56922,4.8521361)" /><path
   style="fill:#85453d"
   d="m 844.41722,65.754136 h -152.23 c -4.204,0 -7.611,-3.407 -7.611,-7.611 0,-4.204 3.408,-7.611 7.611,-7.611 h 152.23 c 4.204,0 7.612,3.407 7.612,7.611 0,4.204 -3.408,7.611 -7.612,7.611 z"
   id="path171" /><path
   style="fill:#60312c"
   d="m 846.82322,489.32114 -17.627,-5.876 v -52.866 h -38.059 v 50.741 c 0,3.276 2.097,6.185 5.204,7.221 l 3.55876,1.18631 42.10824,14.03669 c 3.986,1.329 8.299,-0.826 9.628,-4.815 1.33,-3.988 -0.826,-8.299 -4.813,-9.628 z"
   id="path188"
   sodipodi:nodetypes="ccccsccccc" /><g
   id="g1877"
   transform="translate(-72.369552)"><polygon
     style="fill:#c27749"
     points="197.899,286.35 197.899,425.726 182.676,446.024 182.676,286.35 "
     id="polygon260"
     transform="matrix(0.99813812,-0.7324439,0.69191719,1.0566007,934.90469,765.81034)" /><path
     style="fill:none;stroke:#85453d;stroke-width:15;stroke-linecap:round;stroke-linejoin:miter;stroke-miterlimit:4;stroke-dasharray:none;stroke-opacity:1"
     d="m 1351.7636,800.37899 18.2621,70.93834 36.6655,71.23467"
     id="path516" /><path
     id="path258"
     style="fill:#a45e43;stroke-width:1.03756"
     d="m 1326.0723,767.74683 c -11.0863,-1.78814 -21.4193,6.43679 -23.0803,18.37158 l -20.0903,144.28212 29.6688,4.78537 0.4404,0.0711 29.6689,4.78538 20.0705,-144.28531 c 1.661,-11.93479 -5.9792,-23.05867 -17.0654,-24.8468 l -9.5863,-1.5462 -0.4404,-0.071 z" /><path
     style="fill:#85453d"
     d="m 1475.5652,1074.056 -15.7014,9.935 -40.9444,-33.4419 -24.0742,29.4751 39.2988,32.0976 c 2.5373,2.0723 6.1168,2.2884 8.8846,0.5374 l 40.6781,-25.7391 c 3.5507,-2.2466 4.61,-6.9502 2.3612,-10.5028 -2.248,-3.552 -6.9506,-4.6093 -10.5027,-2.3613 z"
     id="path397" /><path
     id="path399"
     style="fill:#a45e43"
     d="m 1323.3666,933.32943 -24.7472,-1.40233 -34.021,71.5288 -39.7934,30.9243 13.3436,14.4585 44.2247,-32.7977 z"
     sodipodi:nodetypes="ccccccc" /><path
     style="fill:#60312c"
     d="m 1225.8098,1109.2786 -8.8308,-16.348 36.1806,-38.5457 -27.7496,-26.047 -34.7264,36.9964 c -2.242,2.3886 -2.7039,5.9448 -1.1476,8.8265 l 22.8785,42.3532 c 1.9968,3.6969 6.6163,5.0774 10.3153,3.0785 3.6991,-1.9975 5.0774,-6.6163 3.08,-10.3139 z"
     id="path401" /><g
     id="g426"
     transform="matrix(-1,0,0,1,2106.9589,632.38884)"><circle
       style="fill:#ff5555;stroke:none"
       id="circle412"
       cx="815.39386"
       cy="98.948669"
       r="19.786329" /><path
       style="fill:#ffb4a9"
       d="m 768.30222,37.845136 v 91.338004 c 25.222,0 45.669,-20.447 45.669,-45.669004 0,-25.222 -20.446,-45.669 -45.669,-45.669 z"
       id="path414" /><path
       style="fill:#ffd9d4"
       d="m 783.52522,83.514136 c 0,-25.222 -6.816,-45.669 -15.223,-45.669 -25.222,0 -45.669,20.447 -45.669,45.669 0,25.222004 20.447,45.669004 45.669,45.669004 8.408,0 15.223,-20.446 15.223,-45.669004 z"
       id="path416" /><path
       id="path418"
       style="fill:#ff5555"
       d="m 768.30273,37.845703 c -11.92866,0 -22.78508,4.577444 -30.91992,12.066406 2.35698,28.649243 48.71628,36.461112 76.29883,38.681641 0.18475,-1.668635 0.28906,-3.362196 0.28906,-5.080078 0,-25.222 -20.44497,-45.667969 -45.66797,-45.667969 z"
       sodipodi:nodetypes="sccss" /><polygon
       style="fill:#85453d"
       points="258.713,53.292 246.105,12.696 228.17,12.696 210.544,32.994 233.357,53.292 "
       id="polygon420"
       transform="translate(547.56922,4.8521361)" /><polygon
       style="fill:#a45e43"
       points="228.17,12.696 195.362,12.696 182.755,53.292 233.357,53.292 "
       id="polygon422"
       transform="translate(547.56922,4.8521361)" /><path
       style="fill:#85453d"
       d="m 844.41722,65.754136 h -152.23 c -4.204,0 -7.611,-3.407 -7.611,-7.611 0,-4.204 3.408,-7.611 7.611,-7.611 h 152.23 c 4.204,0 7.612,3.407 7.612,7.611 0,4.204 -3.408,7.611 -7.612,7.611 z"
       id="path424" /></g><path
     style="fill:none;stroke:#85453d;stroke-width:15;stroke-linecap:round;stroke-linejoin:miter;stroke-miterlimit:4;stroke-dasharray:none;stroke-opacity:1"
     d="m 1311.6777,795.05545 -43.3355,46.55029 -16.0855,78.4026"
     id="path514" /></g><g
   id="g1894"
   transform="translate(152)"><path
     id="polygon253"
     style="fill:#c27749"
     d="m 1546.3805,1091.9093 -18.1095,1.7002 17.6431,-75.9455 -56.9798,-56.15844 19.8117,-3.574 55.4217,59.52624 z"
     sodipodi:nodetypes="ccccccc" /><path
     style="fill:none;stroke:#85453d;stroke-width:15;stroke-linecap:round;stroke-linejoin:miter;stroke-miterlimit:4;stroke-dasharray:none;stroke-opacity:1"
     d="m 1530.5901,826.47279 c 3.6187,19.35701 33.0465,59.70323 46.4577,73.92433 13.4113,14.22111 49.7663,45.95497 49.7663,45.95497"
     id="path520" /><path
     id="path247"
     style="fill:#a45e43;stroke-width:1.03756"
     d="m 1505.3731,796.47544 c -11.0863,-1.78814 -21.4193,6.43679 -23.0803,18.37158 l -20.0903,144.28212 29.6688,4.78537 0.4404,0.0711 29.6689,4.78538 20.0705,-144.28531 c 1.661,-11.93479 -5.9792,-23.05867 -17.0654,-24.8468 l -9.5863,-1.5462 -0.4404,-0.071 z" /><path
     id="path249"
     style="fill:#a45e43"
     d="m 1494.3808,960.38114 -24.0919,-5.82827 -46.3255,64.24763 -44.7043,23.2668 10.527,16.6217 49.4003,-24.3131 z"
     sodipodi:nodetypes="ccccccc" /><path
     style="fill:#60312c"
     d="m 1349.8568,1104.014 0.9472,-18.5564 50.9398,-14.1402 -10.1797,-36.6724 -48.8923,13.5719 c -3.1566,0.8762 -5.3988,3.6749 -5.566,6.9458 l -2.4537,48.0749 c -0.2144,4.1962 3.0157,7.7757 7.2148,7.9893 4.1985,0.2149 7.7757,-3.0157 7.9899,-7.2129 z"
     id="path251" /><path
     style="fill:#85453d"
     d="m 1583.8035,1104.2068 -17.9336,-4.8604 -3.0173,-52.7798 -37.995,2.1721 2.896,50.6583 c 0.187,3.2706 2.4466,6.0552 5.6077,6.9122 l 46.4613,12.5918 c 4.0555,1.0993 8.2384,-1.2983 9.3376,-5.3567 1.0991,-4.0574 -1.2993,-8.2383 -5.3567,-9.3375 z"
     id="path256" /><g
     id="g442"
     transform="matrix(-1,0,0,1,2280.4228,659.42678)"><circle
       style="fill:#ff5555;stroke:none"
       id="circle428"
       cx="815.39386"
       cy="98.948669"
       r="19.786329" /><path
       style="fill:#ffb4a9"
       d="m 768.30222,37.845136 v 91.338004 c 25.222,0 45.669,-20.447 45.669,-45.669004 0,-25.222 -20.446,-45.669 -45.669,-45.669 z"
       id="path430" /><path
       style="fill:#ffd9d4"
       d="m 783.52522,83.514136 c 0,-25.222 -6.816,-45.669 -15.223,-45.669 -25.222,0 -45.669,20.447 -45.669,45.669 0,25.222004 20.447,45.669004 45.669,45.669004 8.408,0 15.223,-20.446 15.223,-45.669004 z"
       id="path432" /><path
       id="path434"
       style="fill:#ff5555"
       d="m 768.30273,37.845703 c -11.92866,0 -22.78508,4.577444 -30.91992,12.066406 2.35698,28.649243 48.71628,36.461112 76.29883,38.681641 0.18475,-1.668635 0.28906,-3.362196 0.28906,-5.080078 0,-25.222 -20.44497,-45.667969 -45.66797,-45.667969 z"
       sodipodi:nodetypes="sccss" /><polygon
       style="fill:#85453d"
       points="233.357,53.292 258.713,53.292 246.105,12.696 228.17,12.696 210.544,32.994 "
       id="polygon436"
       transform="translate(547.56922,4.8521361)" /><polygon
       style="fill:#a45e43"
       points="228.17,12.696 195.362,12.696 182.755,53.292 233.357,53.292 "
       id="polygon438"
       transform="translate(547.56922,4.8521361)" /><path
       style="fill:#85453d"
       d="m 844.41722,65.754136 h -152.23 c -4.204,0 -7.611,-3.407 -7.611,-7.611 0,-4.204 3.408,-7.611 7.611,-7.611 h 152.23 c 4.204,0 7.612,3.407 7.612,7.611 0,4.204 -3.408,7.611 -7.612,7.611 z"
       id="path440" /></g><path
     style="fill:none;stroke:#85453d;stroke-width:15;stroke-linecap:round;stroke-linejoin:miter;stroke-miterlimit:4;stroke-dasharray:none;stroke-opacity:1"
     d="m 1494.033,808.84997 c 0,0 -59.5658,30.48144 -67.4855,52.88908 -7.9198,22.40764 -45.5099,62.36875 -45.5099,62.36875"
     id="path518" /></g><g
   id="g1860"
   transform="translate(269.02496,23.319534)"><path
     id="path231"
     style="fill:#a45e43"
     d="m 1683.6185,757.21068 c -11.21,0 -20.2969,9.08688 -20.2969,20.29688 l -0.01,135.52148 h 30 0.4453 30 l -0.01,-135.52148 c 0,-11.21 -9.0869,-20.29688 -20.2969,-20.29688 h -9.6933 -0.4453 z" /><path
     id="polygon237"
     style="fill:#a45e43"
     d="m 1707.2645,913.08545 h -15.223 v 84.28551 l -83.7856,6.84194 10.527,16.6218 88.4816,-7.8882 z"
     sodipodi:nodetypes="ccccccc" /><path
     style="fill:#60312c"
     d="m 1608.3242,1060.6314 0.9472,-18.5564 50.9398,-14.1402 -10.1797,-36.67231 -48.8923,13.57181 c -3.1566,0.8762 -5.3988,3.6749 -5.566,6.9458 l -2.4537,48.0749 c -0.2144,4.1962 3.0157,7.7757 7.2148,7.9893 4.1985,0.2149 7.7757,-3.0157 7.9899,-7.2129 z"
     id="path244" /><polygon
     style="fill:#c27749"
     points="182.676,446.024 182.676,286.35 197.899,286.35 197.899,425.726 "
     id="polygon233"
     transform="translate(1496.0598,625.42679)" /><path
     style="fill:#85453d"
     d="m 1738.1201,1100.1256 -18.5547,-0.9806 -14.0482,-50.9653 -36.6888,10.113 13.4836,48.9167 c 0.8705,3.1582 3.6652,5.4053 6.9358,5.5785 l 48.0703,2.5404 c 4.1959,0.222 7.7812,-3.0016 8.0024,-7.2003 0.2214,-4.1978 -3.0026,-7.7809 -7.2004,-8.0024 z"
     id="path235" /><g
     id="g458"
     transform="matrix(-1,0,0,1,2470.5759,612.74787)"><circle
       style="fill:#ff5555;stroke:none"
       id="circle444"
       cx="815.39386"
       cy="98.948669"
       r="19.786329" /><path
       style="fill:#ffb4a9"
       d="m 768.30222,37.845136 v 91.338004 c 25.222,0 45.669,-20.447 45.669,-45.669004 0,-25.222 -20.446,-45.669 -45.669,-45.669 z"
       id="path446" /><path
       style="fill:#ffd9d4"
       d="m 783.52522,83.514136 c 0,-25.222 -6.816,-45.669 -15.223,-45.669 -25.222,0 -45.669,20.447 -45.669,45.669 0,25.222004 20.447,45.669004 45.669,45.669004 8.408,0 15.223,-20.446 15.223,-45.669004 z"
       id="path448" /><path
       id="path450"
       style="fill:#ff5555"
       d="m 768.30273,37.845703 c -11.92866,0 -22.78508,4.577444 -30.91992,12.066406 2.35698,28.649243 48.71628,36.461112 76.29883,38.681641 0.18475,-1.668635 0.28906,-3.362196 0.28906,-5.080078 0,-25.222 -20.44497,-45.667969 -45.66797,-45.667969 z"
       sodipodi:nodetypes="sccss" /><polygon
       style="fill:#85453d"
       points="233.357,53.292 258.713,53.292 246.105,12.696 228.17,12.696 210.544,32.994 "
       id="polygon452"
       transform="translate(547.56922,4.8521361)" /><polygon
       style="fill:#a45e43"
       points="195.362,12.696 182.755,53.292 233.357,53.292 228.17,12.696 "
       id="polygon454"
       transform="translate(547.56922,4.8521361)" /><path
       style="fill:#85453d"
       d="m 844.41722,65.754136 h -152.23 c -4.204,0 -7.611,-3.407 -7.611,-7.611 0,-4.204 3.408,-7.611 7.611,-7.611 h 152.23 c 4.204,0 7.612,3.407 7.612,7.611 0,4.204 -3.408,7.611 -7.612,7.611 z"
       id="path456" /></g><path
     style="fill:none;stroke:#85453d;stroke-width:15;stroke-linecap:round;stroke-linejoin:miter;stroke-miterlimit:4;stroke-dasharray:none;stroke-opacity:1"
     d="m 1694.9238,783.18629 c 0,0 -5.5142,88.18458 3.6291,113.79078 9.1434,25.6062 28.0297,56.58331 28.0297,56.58331"
     id="path522" /></g><g
   id="g1844"
   transform="translate(397.59368,26.944826)"><g
     id="g474"
     transform="matrix(-1,0,0,1,2669.9579,594.29737)"><circle
       style="fill:#ff5555;stroke:none"
       id="circle460"
       cx="815.39386"
       cy="98.948669"
       r="19.786329" /><path
       style="fill:#ffb4a9"
       d="m 768.30222,37.845136 v 91.338004 c 25.222,0 45.669,-20.447 45.669,-45.669004 0,-25.222 -20.446,-45.669 -45.669,-45.669 z"
       id="path462" /><path
       style="fill:#ffd9d4"
       d="m 783.52522,83.514136 c 0,-25.222 -6.816,-45.669 -15.223,-45.669 -25.222,0 -45.669,20.447 -45.669,45.669 0,25.222004 20.447,45.669004 45.669,45.669004 8.408,0 15.223,-20.446 15.223,-45.669004 z"
       id="path464" /><path
       id="path466"
       style="fill:#ff5555"
       d="m 768.30273,37.845703 c -11.92866,0 -22.78508,4.577444 -30.91992,12.066406 2.35698,28.649243 48.71628,36.461112 76.29883,38.681641 0.18475,-1.668635 0.28906,-3.362196 0.28906,-5.080078 0,-25.222 -20.44497,-45.667969 -45.66797,-45.667969 z"
       sodipodi:nodetypes="sccss" /><polygon
       style="fill:#85453d"
       points="258.713,53.292 246.105,12.696 228.17,12.696 210.544,32.994 233.357,53.292 "
       id="polygon468"
       transform="translate(547.56922,4.8521361)" /><polygon
       style="fill:#a45e43"
       points="182.755,53.292 233.357,53.292 228.17,12.696 195.362,12.696 "
       id="polygon470"
       transform="translate(547.56922,4.8521361)" /><path
       style="fill:#85453d"
       d="m 844.41722,65.754136 h -152.23 c -4.204,0 -7.611,-3.407 -7.611,-7.611 0,-4.204 3.408,-7.611 7.611,-7.611 h 152.23 c 4.204,0 7.612,3.407 7.612,7.611 0,4.204 -3.408,7.611 -7.612,7.611 z"
       id="path472" /></g><polygon
     style="fill:#c27749"
     points="182.676,446.024 182.676,286.35 197.899,286.35 197.899,425.726 "
     id="polygon496"
     transform="matrix(1.08239,0.59129164,-0.54311333,1.1784063,1815.3364,433.67008)" /><path
     style="fill:none;stroke:#85453d;stroke-width:15;stroke-linecap:round;stroke-linejoin:miter;stroke-miterlimit:4;stroke-dasharray:none;stroke-opacity:1"
     d="m 1905.6108,799.01251 c 0,0 52.9162,97.68948 50.0211,122.74388 -2.895,25.0544 -8.1261,31.84141 -8.1261,31.84141"
     id="path526" /><path
     id="path492"
     style="fill:#a45e43;stroke-width:1.08045"
     d="m 1884.6765,732.99656 c -11.099,-1.83733 -21.3717,7.17608 -22.9456,20.13279 l -19.0373,156.63641 29.7029,4.91705 0.4409,0.073 29.7028,4.91704 19.0175,-156.63969 c 1.5739,-12.95671 -6.1472,-24.94883 -17.2462,-26.78617 l -9.5973,-1.58874 -0.4409,-0.073 z" /><path
     style="fill:#85453d"
     d="m 1816.87,1105.6221 -15.4436,-10.3312 13.9899,-50.9813 -36.7003,-10.071 -13.4276,48.9321 c -0.8669,3.1592 0.3856,6.5194 3.1077,8.3407 l 40.0104,26.7651 c 3.4923,2.3365 8.2218,1.3996 10.559,-2.0955 2.3369,-3.4941 1.3987,-8.222 -2.0955,-10.5589 z"
     id="path498" /><path
     id="path500"
     style="fill:#a45e43"
     d="m 1888.7496,896.43611 -12.0495,9.30327 51.5097,66.71433 -62.1373,56.61979 18.4905,6.7231 65.2149,-60.31773 z"
     sodipodi:nodetypes="ccccccc" /><path
     style="fill:#60312c"
     d="m 1896.479,1081.3992 -11.3164,-14.737 29.5959,-43.8052 -31.536,-21.3065 -28.4063,42.0444 c -1.834,2.7145 -1.725,6.2989 0.2696,8.8968 l 29.3178,38.1795 c 2.5588,3.3327 7.339,3.9616 10.6734,1.4003 3.3347,-2.56 3.9616,-7.339 1.402,-10.6723 z"
     id="path502" /><path
     style="fill:none;stroke:#85453d;stroke-width:15;stroke-linecap:round;stroke-linejoin:miter;stroke-miterlimit:4;stroke-dasharray:none;stroke-opacity:1"
     d="m 1884.4916,749.97908 c 0,0 -48.4787,71.35952 -51.8695,86.09947 -3.3908,14.73995 18.953,95.09453 18.953,95.09453"
     id="path524" /></g><g
   id="g1827"
   transform="translate(595.45203,1.4650709)"><g
     id="g490"
     transform="matrix(-1,0,0,1,2859.4413,637.23402)"><circle
       style="fill:#ff5555;stroke:none"
       id="circle476"
       cx="815.39386"
       cy="98.948669"
       r="19.786329" /><path
       style="fill:#ffb4a9"
       d="m 768.30222,37.845136 v 91.338004 c 25.222,0 45.669,-20.447 45.669,-45.669004 0,-25.222 -20.446,-45.669 -45.669,-45.669 z"
       id="path478" /><path
       style="fill:#ffd9d4"
       d="m 783.52522,83.514136 c 0,-25.222 -6.816,-45.669 -15.223,-45.669 -25.222,0 -45.669,20.447 -45.669,45.669 0,25.222004 20.447,45.669004 45.669,45.669004 8.408,0 15.223,-20.446 15.223,-45.669004 z"
       id="path480" /><path
       id="path482"
       style="fill:#ff5555"
       d="m 768.30273,37.845703 c -11.92866,0 -22.78508,4.577444 -30.91992,12.066406 2.35698,28.649243 48.71628,36.461112 76.29883,38.681641 0.18475,-1.668635 0.28906,-3.362196 0.28906,-5.080078 0,-25.222 -20.44497,-45.667969 -45.66797,-45.667969 z"
       sodipodi:nodetypes="sccss" /><polygon
       style="fill:#85453d"
       points="246.105,12.696 228.17,12.696 210.544,32.994 233.357,53.292 258.713,53.292 "
       id="polygon484"
       transform="translate(547.56922,4.8521361)" /><polygon
       style="fill:#a45e43"
       points="233.357,53.292 228.17,12.696 195.362,12.696 182.755,53.292 "
       id="polygon486"
       transform="translate(547.56922,4.8521361)" /><path
       style="fill:#85453d"
       d="m 844.41722,65.754136 h -152.23 c -4.204,0 -7.611,-3.407 -7.611,-7.611 0,-4.204 3.408,-7.611 7.611,-7.611 h 152.23 c 4.204,0 7.612,3.407 7.612,7.611 0,4.204 -3.408,7.611 -7.612,7.611 z"
       id="path488" /></g><path
     style="fill:none;stroke:#85453d;stroke-width:15;stroke-linecap:round;stroke-linejoin:miter;stroke-miterlimit:4;stroke-dasharray:none;stroke-opacity:1"
     d="m 2107.4055,803.85416 c 0.7951,27.74215 5.8028,64.14315 19.4963,74.27579 13.6936,10.13265 54.3881,76.53468 54.3881,76.53468"
     id="path530" /><path
     id="path494"
     style="fill:#a45e43;stroke-width:1.09622"
     d="m 2079.5562,771.6884 c -11.1428,-1.47346 -21.1692,8.18636 -22.3953,21.57663 l -14.8333,161.87826 29.8201,3.94326 0.4426,0.0585 29.8201,3.94326 14.8132,-161.88089 c 1.2263,-13.39028 -6.8123,-25.43889 -17.955,-26.91236 l -9.6352,-1.27411 -0.4426,-0.0585 z" /><polygon
     style="fill:#a45e43;fill-opacity:1"
     points="182.676,446.024 182.676,286.35 197.899,286.35 197.899,425.726 "
     id="polygon504"
     transform="matrix(-1.0190674,0.69476298,0.65625012,1.1193522,2077.036,480.68226)" /><path
     id="path506"
     style="fill:#c27749;fill-opacity:1"
     d="m 2063.5245,956.3901 -24.0919,-5.82827 -46.3255,64.24757 -44.7043,23.2669 10.527,16.6217 49.4003,-24.3131 z"
     sodipodi:nodetypes="ccccccc" /><path
     style="fill:#85453d"
     d="m 1948.2355,1109.6372 -8.6076,-16.4665 36.7017,-38.05 -27.3913,-26.4207 -35.2264,36.5205 c -2.2743,2.3579 -2.7845,5.9075 -1.2675,8.8102 l 22.3,42.6604 c 1.9463,3.7238 6.5466,5.167 10.2725,3.2186 3.7251,-1.9477 5.1663,-6.5473 3.2186,-10.2725 z"
     id="path508" /><path
     style="fill:#60312c"
     d="m 2207.7985,1086.4782 -17.266,6.8648 -34.0652,-40.4273 -29.1043,24.524 32.696,38.8024 c 2.1109,2.5052 5.589,3.3785 8.6325,2.1687 l 44.7315,-17.7851 c 3.9045,-1.5522 5.8141,-5.9793 4.26,-9.8861 -1.5527,-3.9068 -5.9792,-5.8141 -9.8845,-4.2614 z"
     id="path510" /><path
     style="fill:none;stroke:#85453d;stroke-width:15;stroke-linecap:round;stroke-linejoin:miter;stroke-miterlimit:4;stroke-dasharray:none;stroke-opacity:1"
     d="m 2077.996,792.39779 -54.4748,66.10347 -33.1218,83.16559"
     id="path528" /></g><g
   id="g1453"
   transform="translate(-181.21443,138.02215)"><polygon
     style="fill:#a45e43"
     points="243.568,286.35 243.568,425.726 258.791,446.024 258.791,286.35 "
     id="polygon1380"
     transform="translate(486.11882,763.05981)" /><path
     style="fill:#60312c;stroke-width:0.676104"
     d="m 722.69857,1247.3339 8.0576,-5.876 v -52.866 h 17.39742 v 50.741 c 0,3.276 -0.95857,6.185 -2.37884,7.221 l -20.87516,15.223 c -1.82207,1.329 -3.79362,-0.826 -4.40113,-4.815 -0.60796,-3.988 0.37758,-8.299 2.20011,-9.628 z"
     id="path1382" /><polygon
     style="fill:#c27749"
     points="197.899,286.35 197.899,425.726 182.676,446.024 182.676,286.35 "
     id="polygon1384"
     transform="translate(486.11882,763.05981)" /><path
     style="fill:#85453d;stroke-width:0.655343"
     d="m 660.10194,1247.5288 7.57035,-5.876 v -52.866 h 16.34453 v 50.741 c 0,3.276 -0.90061,6.185 -2.23499,7.221 l -19.61283,15.223 c -1.71189,1.329 -3.56421,-0.826 -4.13498,-4.815 -0.57078,-3.988 0.35517,-8.299 2.06792,-9.628 z"
     id="path1386" /><path
     style="fill:#a45e43"
     d="m 691.62882,993.96381 15.223,91.33799 c 25.222,0 45.669,-20.447 45.669,-45.669 z"
     id="path1396" /><path
     style="fill:#c27749"
     d="m 661.18282,1039.6328 c 0,25.222 20.447,45.669 45.669,45.669 v -91.33799 z"
     id="path1398" /><polygon
     style="fill:#60312c"
     points="266.402,276.573 266.402,246.127 205.51,215.681 220.733,276.573 "
     id="polygon1400"
     transform="translate(486.11882,763.05981)" /><polygon
     style="fill:#85453d"
     points="175.064,276.573 175.064,246.127 220.733,215.681 220.733,276.573 "
     id="polygon1402"
     transform="translate(486.11882,763.05981)" /><polygon
     style="fill:#ffe2a8"
     points="266.402,200.451 251.179,154.786 220.733,154.777 190.287,200.446 220.733,246.107 251.179,246.115 "
     id="polygon1404"
     transform="translate(486.11882,763.05981)" /><polygon
     style="fill:#fff0d3"
     points="220.733,154.777 190.287,154.786 175.064,200.451 190.287,246.115 220.733,246.107 "
     id="polygon1406"
     transform="translate(486.11882,763.05981)" /><path
     style="fill:none;stroke:#85453d;stroke-width:15;stroke-linecap:round;stroke-linejoin:miter;stroke-miterlimit:4;stroke-dasharray:none;stroke-opacity:1"
     d="m 656.9492,936.73041 -43.3355,46.55029 -16.0855,78.4026"
     id="path1428" /><path
     style="fill:#a45e43"
     d="m 666.26382,917.84881 c -11.21,0 -20.297,9.087 -20.297,20.297 l -0.006,135.52099 h 30.446 V 917.84881 Z"
     id="path1408" /><path
     style="fill:#85453d"
     d="m 747.44682,917.84881 h -10.149 v 155.81799 h 30.446 V 938.14681 c 0,-11.209 -9.087,-20.298 -20.297,-20.298 z"
     id="path1410" /><circle
     style="fill:#ff5555;stroke:none"
     id="circle1412"
     cx="753.94348"
     cy="857.15637"
     r="19.786329" /><path
     style="fill:#ffb4a9"
     d="m 706.85182,796.05281 v 91.338 c 25.222,0 45.669,-20.447 45.669,-45.669 0,-25.222 -20.446,-45.669 -45.669,-45.669 z"
     id="path1414" /><path
     style="fill:#ffd9d4"
     d="m 722.07482,841.72181 c 0,-25.222 -6.816,-45.669 -15.223,-45.669 -25.222,0 -45.669,20.447 -45.669,45.669 0,25.222 20.447,45.669 45.669,45.669 8.408,0 15.223,-20.446 15.223,-45.669 z"
     id="path1416" /><path
     id="path1418"
     style="fill:#ff5555"
     d="m 706.85233,796.05338 c -11.92866,0 -22.78508,4.57744 -30.91992,12.0664 2.35698,28.64924 48.71628,36.46111 76.29883,38.68164 0.18475,-1.66863 0.28906,-3.36219 0.28906,-5.08008 0,-25.222 -20.44497,-45.66796 -45.66797,-45.66796 z"
     sodipodi:nodetypes="sccss" /><polygon
     style="fill:#85453d"
     points="210.544,32.994 233.357,53.292 258.713,53.292 246.105,12.696 228.17,12.696 "
     id="polygon1420"
     transform="translate(486.11882,763.05981)" /><polygon
     style="fill:#a45e43"
     points="228.17,12.696 195.362,12.696 182.755,53.292 233.357,53.292 "
     id="polygon1422"
     transform="translate(486.11882,763.05981)" /><path
     style="fill:#85453d"
     d="m 782.96682,823.96181 h -152.23 c -4.204,0 -7.611,-3.407 -7.611,-7.611 0,-4.204 3.408,-7.611 7.611,-7.611 h 152.23 c 4.204,0 7.612,3.407 7.612,7.611 0,4.204 -3.408,7.611 -7.612,7.611 z"
     id="path1424" /><path
     style="fill:none;stroke:#85453d;stroke-width:15;stroke-linecap:round;stroke-linejoin:miter;stroke-miterlimit:4;stroke-dasharray:none;stroke-opacity:1"
     d="m 757.5282,936.73041 43.3355,46.55029 16.0855,78.4026"
     id="path1430" /></g><polygon
   style="fill:#a45e43"
   points="243.568,425.726 258.791,446.024 258.791,286.35 243.568,286.35 "
   id="polygon1455"
   transform="translate(-211.23505,1214.5927)" /><path
   style="fill:#60312c;stroke-width:0.676104"
   d="m 25.344703,1698.8668 8.0576,-5.876 v -52.866 h 17.39742 v 50.741 c 0,3.276 -0.95857,6.185 -2.37884,7.221 l -20.87516,15.223 c -1.82207,1.329 -3.79362,-0.826 -4.40113,-4.815 -0.60796,-3.988 0.37758,-8.299 2.20011,-9.628 z"
   id="path1457" /><polygon
   style="fill:#c27749"
   points="197.899,425.726 182.676,446.024 182.676,286.35 197.899,286.35 "
   id="polygon1459"
   transform="translate(-211.23505,1214.5927)" /><path
   style="fill:#85453d;stroke-width:0.655343"
   d="m -37.251927,1699.0617 7.57035,-5.876 v -52.866 h 16.34453 v 50.741 c 0,3.276 -0.90061,6.185 -2.23499,7.221 l -19.61283,15.223 c -1.71189,1.329 -3.56421,-0.826 -4.13498,-4.815 -0.57078,-3.988 0.35517,-8.299 2.06792,-9.628 z"
   id="path1461" /><path
   style="fill:#a45e43"
   d="m -5.7250466,1445.4967 15.223,91.338 c 25.2219996,0 45.6689996,-20.447 45.6689996,-45.669 z"
   id="path1463" /><path
   style="fill:#c27749"
   d="m -36.171047,1491.1657 c 0,25.222 20.447,45.669 45.6690004,45.669 v -91.338 z"
   id="path1465" /><polygon
   style="fill:#60312c"
   points="266.402,246.127 205.51,215.681 220.733,276.573 266.402,276.573 "
   id="polygon1467"
   transform="translate(-211.23505,1214.5927)" /><polygon
   style="fill:#85453d"
   points="175.064,246.127 220.733,215.681 220.733,276.573 175.064,276.573 "
   id="polygon1469"
   transform="translate(-211.23505,1214.5927)" /><polygon
   style="fill:#ffe2a8"
   points="251.179,154.786 220.733,154.777 190.287,200.446 220.733,246.107 251.179,246.115 266.402,200.451 "
   id="polygon1471"
   transform="translate(-211.23505,1214.5927)" /><polygon
   style="fill:#fff0d3"
   points="190.287,154.786 175.064,200.451 190.287,246.115 220.733,246.107 220.733,154.777 "
   id="polygon1473"
   transform="translate(-211.23505,1214.5927)" /><path
   style="fill:none;stroke:#85453d;stroke-width:15;stroke-linecap:round;stroke-linejoin:miter;stroke-miterlimit:4;stroke-dasharray:none;stroke-opacity:1"
   d="m -40.404667,1388.2633 -43.3355,46.5503 -16.0855,78.4026"
   id="path1475" /><path
   style="fill:#a45e43"
   d="m -31.090047,1369.3817 c -11.21,0 -20.297,9.087 -20.297,20.297 l -0.006,135.521 h 30.446 v -155.818 z"
   id="path1477" /><path
   style="fill:#85453d"
   d="m 50.092953,1369.3817 h -10.149 v 155.818 h 30.446 v -135.52 c 0,-11.209 -9.087,-20.298 -20.297,-20.298 z"
   id="path1479" /><circle
   style="fill:#ff5555;stroke:none"
   id="circle1481"
   cx="56.589615"
   cy="1308.6892"
   r="19.786329" /><path
   style="fill:#ffb4a9"
   d="m 9.4979534,1247.5857 v 91.338 c 25.2219996,0 45.6689996,-20.447 45.6689996,-45.669 0,-25.222 -20.446,-45.669 -45.6689996,-45.669 z"
   id="path1483" /><path
   style="fill:#ffd9d4"
   d="m 24.720953,1293.2547 c 0,-25.222 -6.816,-45.669 -15.2229996,-45.669 -25.2220004,0 -45.6690004,20.447 -45.6690004,45.669 0,25.222 20.447,45.669 45.6690004,45.669 8.4079996,0 15.2229996,-20.446 15.2229996,-45.669 z"
   id="path1485" /><path
   id="path1487"
   style="fill:#ff5555"
   d="m 9.4984634,1247.5863 c -11.92866,0 -22.7850804,4.5774 -30.9199204,12.0664 2.35698,28.6492 48.71628,36.4611 76.29883,38.6816 0.18475,-1.6686 0.28906,-3.3622 0.28906,-5.0801 0,-25.222 -20.44497,-45.6679 -45.6679696,-45.6679 z"
   sodipodi:nodetypes="sccss" /><polygon
   style="fill:#85453d"
   points="233.357,53.292 258.713,53.292 246.105,12.696 228.17,12.696 210.544,32.994 "
   id="polygon1489"
   transform="translate(-211.23505,1214.5927)" /><polygon
   style="fill:#a45e43"
   points="195.362,12.696 182.755,53.292 233.357,53.292 228.17,12.696 "
   id="polygon1491"
   transform="translate(-211.23505,1214.5927)" /><path
   style="fill:#85453d"
   d="m 85.612953,1275.4947 h -152.23 c -4.204,0 -7.611,-3.407 -7.611,-7.611 0,-4.204 3.408,-7.611 7.611,-7.611 h 152.23 c 4.204,0 7.612,3.407 7.612,7.611 0,4.204 -3.408,7.611 -7.612,7.611 z"
   id="path1493" /><path
   style="fill:none;stroke:#85453d;stroke-width:15;stroke-linecap:round;stroke-linejoin:miter;stroke-miterlimit:4;stroke-dasharray:none;stroke-opacity:1"
   d="m 60.174333,1388.2633 43.335497,46.5503 16.0855,78.4026"
   id="path1495" /><g
   id="g2144"><path
     style="fill:none;stroke:#c27749;stroke-width:15;stroke-linecap:round;stroke-linejoin:miter;stroke-miterlimit:4;stroke-dasharray:none;stroke-opacity:1"
     d="m 964.0157,1576.6688 27.99344,92.6991 -4.13218,92.2164"
     id="path1523" /><path
     style="fill:none;stroke:#a45e43;stroke-width:15;stroke-linecap:round;stroke-linejoin:miter;stroke-miterlimit:4;stroke-dasharray:none;stroke-opacity:1"
     d="m 1069.1992,1586.9804 -12.0064,80.5896 0.5422,96.7934"
     id="path1525" /><path
     style="fill:none;stroke:#c27749;stroke-width:15;stroke-linecap:round;stroke-linejoin:miter;stroke-miterlimit:4;stroke-dasharray:none;stroke-opacity:1"
     d="m 1230.4418,1593.7796 -10.0676,77.5173 23.6033,89.3693"
     id="path1527" /><path
     style="fill:none;stroke:#a45e43;stroke-width:15;stroke-linecap:round;stroke-linejoin:miter;stroke-miterlimit:4;stroke-dasharray:none;stroke-opacity:1"
     d="m 1295.4377,1595.8996 v 60.4999 l 7.2392,43.6993"
     id="path1529" /><path
     style="fill:none;stroke:#c27749;stroke-width:15;stroke-linecap:round;stroke-linejoin:miter;stroke-miterlimit:4;stroke-dasharray:none;stroke-opacity:1"
     d="m 1492.9428,1564.3094 12.0101,77.1279 -1.13,113.7977"
     id="path1531" /><path
     style="fill:none;stroke:#a45e43;stroke-width:15;stroke-linecap:round;stroke-linejoin:miter;stroke-miterlimit:4;stroke-dasharray:none;stroke-opacity:1"
     d="m 1557.2881,1545.896 -17.9648,79.3578 13.1383,49.3496"
     id="path1533" /><path
     style="fill:none;stroke:#c27749;stroke-width:15;stroke-linecap:round;stroke-linejoin:miter;stroke-miterlimit:4;stroke-dasharray:none;stroke-opacity:1"
     d="m 1733.6808,1587.6805 16.4238,72.9079 v 97.4259"
     id="path1535" /><path
     style="fill:none;stroke:#a45e43;stroke-width:15;stroke-linecap:round;stroke-linejoin:miter;stroke-miterlimit:4;stroke-dasharray:none;stroke-opacity:1"
     d="m 1792.4603,1571.3431 10.1303,86.7991 -10.4621,98.251"
     id="path1537" /><path
     style="fill:#60312c;stroke-width:0.676104"
     d="m 1048.732,1777.6729 v -52.866 h 17.3974 v 50.741 c 6.1656,20.7362 -23.816,19.2382 -17.3974,2.125 z"
     id="path1566"
     sodipodi:nodetypes="ccccc" /><path
     style="fill:#85453d;fill-opacity:1;stroke-width:0.676104"
     d="m 980.63098,1759.873 2.40028,-52.8115 17.37944,0.7899 -2.30376,50.6886 c 5.21776,20.9948 -24.66485,18.1371 -17.47596,1.333 z"
     id="path1568"
     sodipodi:nodetypes="ccccc" /><path
     style="fill:#85453d;stroke-width:0.777024"
     d="m 1262.3346,1771.3442 -11.739,-5.3273 v -47.9289 h -25.3445 v 46.0024 c 0,2.97 1.3966,5.6074 3.4657,6.5466 l 30.4124,13.8014 c 2.6545,1.2048 5.5268,-0.7489 6.4119,-4.3654 0.8851,-3.6155 -0.5508,-7.5239 -3.2065,-8.7288 z"
     id="path1572" /><path
     style="fill:#60312c;stroke-width:0.74531"
     d="m 1286.2378,1731.6402 3.7169,-1.876 v -52.866 h 21.1413 v 50.741 c 0,3.276 -1.1649,6.185 -2.8908,7.221 l -19.2928,11.223 c -2.2142,1.329 -4.61,-0.826 -5.3483,-4.815 -0.7388,-3.988 0.4011,-8.4809 2.6737,-9.628 z"
     id="path1576"
     sodipodi:nodetypes="scccscccs" /><path
     style="fill:#85453d;fill-opacity:1;stroke-width:0.676104"
     d="m 1495.7251,1756.2792 v -52.866 h 17.3974 v 50.741 c 6.1656,20.7362 -23.8159,19.2382 -17.3974,2.125 z"
     id="path1578"
     sodipodi:nodetypes="ccccc" /><path
     style="fill:#60312c;stroke-width:0.774216"
     d="m 1534.2338,1706.1874 7.6681,-6.8066 -10.1528,-51.4632 22.6477,-3.9893 9.7448,49.3947 c 0.6291,3.189 -0.06,6.2407 -1.71,7.5749 l -22.5588,18.8445 c -2.1168,1.7116 -5.0972,0.066 -6.6542,-3.6781 -1.5573,-3.7427 -0.9831,-8.1031 1.0152,-9.8769 z"
     id="path1580"
     sodipodi:nodetypes="scccscccs" /><path
     style="fill:#85453d;fill-opacity:1;stroke-width:0.676104"
     d="m 1742.5364,1760.3093 v -52.866 h 17.3974 v 50.741 c 6.1656,20.7362 -23.8159,19.2382 -17.3974,2.125 z"
     id="path1582"
     sodipodi:nodetypes="ccccc" /><path
     style="fill:#60312c;stroke-width:0.74531"
     d="m 1806.8932,1763.139 -3.4904,-2.2699 5.7609,-52.5511 -21.0154,-2.3038 -5.5293,50.4388 c -0.357,3.2565 0.484,6.2751 2.0867,7.493 l 17.9549,13.2585 c 2.0562,1.5624 4.6726,-0.3187 5.8412,-4.2035 1.169,-3.8837 0.5254,-8.4741 -1.6086,-9.862 z"
     id="path1584"
     sodipodi:nodetypes="scccscccs" /><path
     style="fill:#a45e43"
     d="m 999.62882,1518.4484 15.22298,91.338 c 25.222,0 45.669,-20.447 45.669,-45.669 z"
     id="path1586" /><path
     style="fill:#c27749"
     d="m 969.18282,1564.1174 c 0,25.222 20.447,45.669 45.66898,45.669 v -91.338 z"
     id="path1588" /><polygon
     style="fill:#60312c"
     points="205.51,215.681 220.733,276.573 266.402,276.573 266.402,246.127 "
     id="polygon1590"
     transform="translate(794.11882,1287.5444)" /><polygon
     style="fill:#85453d"
     points="220.733,215.681 220.733,276.573 175.064,276.573 175.064,246.127 "
     id="polygon1592"
     transform="translate(794.11882,1287.5444)" /><polygon
     style="fill:#ffe2a8"
     points="266.402,200.451 251.179,154.786 220.733,154.777 190.287,200.446 220.733,246.107 251.179,246.115 "
     id="polygon1594"
     transform="translate(794.11882,1287.5444)" /><polygon
     style="fill:#fff0d3"
     points="175.064,200.451 190.287,246.115 220.733,246.107 220.733,154.777 190.287,154.786 "
     id="polygon1596"
     transform="translate(794.11882,1287.5444)" /><path
     style="fill:none;stroke:#85453d;stroke-width:15;stroke-linecap:round;stroke-linejoin:miter;stroke-miterlimit:4;stroke-dasharray:none;stroke-opacity:1"
     d="m 964.9492,1461.215 -43.3355,46.5503 -16.0855,78.4026"
     id="path1598" /><path
     style="fill:#a45e43"
     d="m 974.26382,1442.3334 c -11.21,0 -20.297,9.087 -20.297,20.297 l -0.006,135.521 h 30.446 v -155.818 z"
     id="path1600" /><path
     style="fill:#85453d"
     d="m 1055.4468,1442.3334 h -10.149 v 155.818 h 30.446 v -135.52 c 0,-11.209 -9.087,-20.298 -20.297,-20.298 z"
     id="path1602" /><g
     id="g1903"><path
       style="fill:#ffb4a9"
       d="m 1014.8518,1320.5374 v 91.338 c 25.222,0 45.669,-20.447 45.669,-45.669 0,-25.222 -20.446,-45.669 -45.669,-45.669 z"
       id="path1606" /><path
       style="fill:#ffd9d4"
       d="m 1030.0748,1366.2064 c 0,-25.222 -6.816,-45.669 -15.223,-45.669 -25.22198,0 -45.66898,20.447 -45.66898,45.669 0,25.222 20.447,45.669 45.66898,45.669 8.408,0 15.223,-20.446 15.223,-45.669 z"
       id="path1608" /><path
       id="path1610"
       style="fill:#ff5555;stroke-width:1.35573;fill-opacity:1"
       d="m 1026.7742,1327.1975 c -13.7655,1.892 -26.1776,5.8651 -36.23005,11.3368 2.53721,18.2345 34.41515,28.5801 69.60085,34.237 0.5088,-2.163 0.3482,-4.5881 0.3765,-6.8337 0.2811,-22.282 -13.2885,-30.9255 -33.7473,-38.7401 z"
       sodipodi:nodetypes="cccsc" /><polygon
       style="fill:#85453d"
       points="258.713,53.292 246.105,12.696 228.17,12.696 210.544,32.994 233.357,53.292 "
       id="polygon1612"
       transform="translate(794.11882,1287.5444)" /><path
       id="path1808"
       style="fill:#ff5555;stroke-width:0.64131;fill-opacity:1"
       d="m 980.44143,1336.1164 c 4.67462,1.2466 8.88963,3.8646 12.3033,7.4701 -0.86163,12.0154 -11.54583,18.6884 -23.49444,22.416 -0.17278,-1.4253 -0.26894,-2.8791 -0.26894,-4.3589 0,-10.5274 4.52504,-19.8369 11.46008,-25.5272 z" /><polygon
       style="fill:#a45e43"
       points="182.755,53.292 233.357,53.292 228.17,12.696 195.362,12.696 "
       id="polygon1614"
       transform="translate(794.11882,1287.5444)" /><path
       style="fill:#85453d"
       d="M 1090.9668,1348.4464 H 938.73682 c -4.204,0 -7.611,-3.407 -7.611,-7.611 0,-4.204 3.408,-7.611 7.611,-7.611 h 152.22998 c 4.204,0 7.612,3.407 7.612,7.611 0,4.204 -3.408,7.611 -7.612,7.611 z"
       id="path1616" /></g><path
     style="fill:none;stroke:#85453d;stroke-width:15;stroke-linecap:round;stroke-linejoin:miter;stroke-miterlimit:4;stroke-dasharray:none;stroke-opacity:1"
     d="m 1065.5282,1461.215 43.3355,46.5503 16.0855,78.4026"
     id="path1618" /><path
     style="fill:#a45e43"
     d="m 1245.1583,1518.4484 15.223,91.338 c 25.222,0 45.669,-20.447 45.669,-45.669 z"
     id="path1639" /><path
     style="fill:#c27749"
     d="m 1214.7123,1564.1174 c 0,25.222 20.447,45.669 45.669,45.669 v -91.338 z"
     id="path1641" /><polygon
     style="fill:#60312c"
     points="220.733,276.573 266.402,276.573 266.402,246.127 205.51,215.681 "
     id="polygon1643"
     transform="translate(1039.6483,1287.5444)" /><polygon
     style="fill:#85453d"
     points="220.733,276.573 175.064,276.573 175.064,246.127 220.733,215.681 "
     id="polygon1645"
     transform="translate(1039.6483,1287.5444)" /><polygon
     style="fill:#ffe2a8"
     points="251.179,154.786 220.733,154.777 190.287,200.446 220.733,246.107 251.179,246.115 266.402,200.451 "
     id="polygon1647"
     transform="translate(1039.6483,1287.5444)" /><polygon
     style="fill:#fff0d3"
     points="190.287,246.115 220.733,246.107 220.733,154.777 190.287,154.786 175.064,200.451 "
     id="polygon1649"
     transform="translate(1039.6483,1287.5444)" /><path
     style="fill:none;stroke:#85453d;stroke-width:15;stroke-linecap:round;stroke-linejoin:miter;stroke-miterlimit:4;stroke-dasharray:none;stroke-opacity:1"
     d="m 1210.4787,1461.215 -43.3355,46.5503 -16.0855,78.4026"
     id="path1651" /><path
     style="fill:#a45e43"
     d="m 1219.7933,1442.3334 c -11.21,0 -20.297,9.087 -20.297,20.297 l -0.01,135.521 h 30.446 v -155.818 z"
     id="path1653" /><path
     style="fill:#85453d"
     d="m 1300.9763,1442.3334 h -10.149 v 155.818 h 30.446 v -135.52 c 0,-11.209 -9.087,-20.298 -20.297,-20.298 z"
     id="path1655" /><path
     style="fill:#85453d"
     d="m 1336.4963,1348.4464 h -152.23 c -4.204,0 -7.611,-3.407 -7.611,-7.611 0,-4.204 3.408,-7.611 7.611,-7.611 h 152.23 c 4.204,0 7.612,3.407 7.612,7.611 0,4.204 -3.408,7.611 -7.612,7.611 z"
     id="path1669" /><path
     style="fill:none;stroke:#85453d;stroke-width:15;stroke-linecap:round;stroke-linejoin:miter;stroke-miterlimit:4;stroke-dasharray:none;stroke-opacity:1"
     d="m 1311.0577,1461.215 43.3355,46.5503 16.0855,78.4026"
     id="path1671" /><path
     style="fill:#a45e43"
     d="m 1537.4196,1491.4323 -15.223,91.338 c -25.222,0 -45.669,-20.447 -45.669,-45.669 z"
     id="path1675" /><path
     style="fill:#c27749"
     d="m 1567.8656,1537.1013 c 0,25.222 -20.447,45.669 -45.669,45.669 v -91.338 z"
     id="path1677" /><polygon
     style="fill:#60312c"
     points="266.402,246.127 205.51,215.681 220.733,276.573 266.402,276.573 "
     id="polygon1679"
     transform="matrix(-1,0,0,1,1742.9296,1260.5283)" /><polygon
     style="fill:#85453d"
     points="175.064,246.127 220.733,215.681 220.733,276.573 175.064,276.573 "
     id="polygon1681"
     transform="matrix(-1,0,0,1,1742.9296,1260.5283)" /><polygon
     style="fill:#ffe2a8"
     points="190.287,200.446 220.733,246.107 251.179,246.115 266.402,200.451 251.179,154.786 220.733,154.777 "
     id="polygon1683"
     transform="matrix(-1,0,0,1,1742.9296,1260.5283)" /><polygon
     style="fill:#fff0d3"
     points="220.733,154.777 190.287,154.786 175.064,200.451 190.287,246.115 220.733,246.107 "
     id="polygon1685"
     transform="matrix(-1,0,0,1,1742.9296,1260.5283)" /><path
     style="fill:none;stroke:#85453d;stroke-width:15;stroke-linecap:round;stroke-linejoin:miter;stroke-miterlimit:4;stroke-dasharray:none;stroke-opacity:1"
     d="m 1572.0992,1434.1989 43.3355,46.5503 16.0855,78.4026"
     id="path1687" /><path
     style="fill:#a45e43"
     d="m 1562.7846,1415.3173 c 11.21,0 20.297,9.087 20.297,20.297 l 0.01,135.521 h -30.446 v -155.818 z"
     id="path1689" /><path
     style="fill:#85453d"
     d="m 1481.6016,1415.3173 h 10.149 v 155.818 h -30.446 v -135.52 c 0,-11.209 9.087,-20.298 20.297,-20.298 z"
     id="path1691" /><path
     style="fill:#85453d"
     d="m 1446.0816,1321.4303 h 152.23 c 4.204,0 7.611,-3.407 7.611,-7.611 0,-4.204 -3.408,-7.611 -7.611,-7.611 h -152.23 c -4.204,0 -7.612,3.407 -7.612,7.611 0,4.204 3.408,7.611 7.612,7.611 z"
     id="path1705" /><path
     style="fill:none;stroke:#85453d;stroke-width:15;stroke-linecap:round;stroke-linejoin:miter;stroke-miterlimit:4;stroke-dasharray:none;stroke-opacity:1"
     d="m 1471.5202,1434.1989 -43.3355,46.5503 -16.0855,78.4026"
     id="path1707" /><path
     style="fill:#a45e43"
     d="m 1743.2412,1505.4323 15.223,91.338 c 25.222,0 45.669,-20.447 45.669,-45.669 z"
     id="path1711" /><path
     style="fill:#c27749"
     d="m 1712.7952,1551.1013 c 0,25.222 20.447,45.669 45.669,45.669 v -91.338 z"
     id="path1713" /><polygon
     style="fill:#60312c"
     points="266.402,276.573 266.402,246.127 205.51,215.681 220.733,276.573 "
     id="polygon1715"
     transform="translate(1537.7312,1274.5283)" /><polygon
     style="fill:#85453d"
     points="175.064,276.573 175.064,246.127 220.733,215.681 220.733,276.573 "
     id="polygon1717"
     transform="translate(1537.7312,1274.5283)" /><polygon
     style="fill:#ffe2a8"
     points="220.733,246.107 251.179,246.115 266.402,200.451 251.179,154.786 220.733,154.777 190.287,200.446 "
     id="polygon1719"
     transform="translate(1537.7312,1274.5283)" /><polygon
     style="fill:#fff0d3"
     points="175.064,200.451 190.287,246.115 220.733,246.107 220.733,154.777 190.287,154.786 "
     id="polygon1721"
     transform="translate(1537.7312,1274.5283)" /><path
     style="fill:none;stroke:#85453d;stroke-width:15;stroke-linecap:round;stroke-linejoin:miter;stroke-miterlimit:4;stroke-dasharray:none;stroke-opacity:1"
     d="m 1708.5616,1448.1989 -43.3355,46.5503 -16.0855,78.4026"
     id="path1723" /><path
     style="fill:#a45e43"
     d="m 1717.8762,1429.3173 c -11.21,0 -20.297,9.087 -20.297,20.297 l -0.01,135.521 h 30.446 v -155.818 z"
     id="path1725" /><path
     style="fill:#85453d"
     d="m 1799.0592,1429.3173 h -10.149 v 155.818 h 30.446 v -135.52 c 0,-11.209 -9.087,-20.298 -20.297,-20.298 z"
     id="path1727" /><path
     style="fill:#85453d"
     d="m 1834.5792,1335.4303 h -152.23 c -4.204,0 -7.611,-3.407 -7.611,-7.611 0,-4.204 3.408,-7.611 7.611,-7.611 h 152.23 c 4.204,0 7.612,3.407 7.612,7.611 0,4.204 -3.408,7.611 -7.612,7.611 z"
     id="path1741" /><path
     style="fill:none;stroke:#85453d;stroke-width:15;stroke-linecap:round;stroke-linejoin:miter;stroke-miterlimit:4;stroke-dasharray:none;stroke-opacity:1"
     d="m 1809.1406,1448.1989 43.3355,46.5503 16.0855,78.4026"
     id="path1743" /><g
     id="g2019"
     transform="translate(245.49275,0.57148085)"><path
       style="fill:#ffb4a9"
       d="m 1014.8518,1320.5374 v 91.338 c 25.222,0 45.669,-20.447 45.669,-45.669 0,-25.222 -20.446,-45.669 -45.669,-45.669 z"
       id="path2005" /><path
       style="fill:#ffd9d4"
       d="m 1030.0748,1366.2064 c 0,-25.222 -6.816,-45.669 -15.223,-45.669 -25.22198,0 -45.66898,20.447 -45.66898,45.669 0,25.222 20.447,45.669 45.66898,45.669 8.408,0 15.223,-20.446 15.223,-45.669 z"
       id="path2007" /><path
       id="path2009"
       style="fill:#ff5555;fill-opacity:1;stroke-width:1.35573"
       d="m 1026.7742,1327.1975 c -13.7655,1.892 -26.1776,5.8651 -36.23005,11.3368 2.53721,18.2345 34.41515,28.5801 69.60085,34.237 0.5088,-2.163 0.3482,-4.5881 0.3765,-6.8337 0.2811,-22.282 -13.2885,-30.9255 -33.7473,-38.7401 z"
       sodipodi:nodetypes="cccsc" /><polygon
       style="fill:#85453d"
       points="246.105,12.696 228.17,12.696 210.544,32.994 233.357,53.292 258.713,53.292 "
       id="polygon2011"
       transform="translate(794.11882,1287.5444)" /><path
       id="path2013"
       style="fill:#ff5555;fill-opacity:1;stroke-width:0.64131"
       d="m 980.44143,1336.1164 c 4.67462,1.2466 8.88963,3.8646 12.3033,7.4701 -0.86163,12.0154 -11.54583,18.6884 -23.49444,22.416 -0.17278,-1.4253 -0.26894,-2.8791 -0.26894,-4.3589 0,-10.5274 4.52504,-19.8369 11.46008,-25.5272 z" /><polygon
       style="fill:#a45e43"
       points="233.357,53.292 228.17,12.696 195.362,12.696 182.755,53.292 "
       id="polygon2015"
       transform="translate(794.11882,1287.5444)" /><path
       style="fill:#85453d"
       d="M 1090.9668,1348.4464 H 938.73682 c -4.204,0 -7.611,-3.407 -7.611,-7.611 0,-4.204 3.408,-7.611 7.611,-7.611 h 152.22998 c 4.204,0 7.612,3.407 7.612,7.611 0,4.204 -3.408,7.611 -7.612,7.611 z"
       id="path2017" /></g><g
     id="g2035"
     transform="translate(508.87443,-26.098003)"><path
       style="fill:#ffb4a9"
       d="m 1014.8518,1320.5374 v 91.338 c 25.222,0 45.669,-20.447 45.669,-45.669 0,-25.222 -20.446,-45.669 -45.669,-45.669 z"
       id="path2021" /><path
       style="fill:#ffd9d4"
       d="m 1030.0748,1366.2064 c 0,-25.222 -6.816,-45.669 -15.223,-45.669 -25.22198,0 -45.66898,20.447 -45.66898,45.669 0,25.222 20.447,45.669 45.66898,45.669 8.408,0 15.223,-20.446 15.223,-45.669 z"
       id="path2023" /><path
       id="path2025"
       style="fill:#ff5555;fill-opacity:1;stroke-width:1.35573"
       d="m 1026.7742,1327.1975 c -13.7655,1.892 -26.1776,5.8651 -36.23005,11.3368 2.53721,18.2345 34.41515,28.5801 69.60085,34.237 0.5088,-2.163 0.3482,-4.5881 0.3765,-6.8337 0.2811,-22.282 -13.2885,-30.9255 -33.7473,-38.7401 z"
       sodipodi:nodetypes="cccsc" /><polygon
       style="fill:#85453d"
       points="246.105,12.696 228.17,12.696 210.544,32.994 233.357,53.292 258.713,53.292 "
       id="polygon2027"
       transform="translate(794.11882,1287.5444)" /><path
       id="path2029"
       style="fill:#ff5555;fill-opacity:1;stroke-width:0.64131"
       d="m 980.44143,1336.1164 c 4.67462,1.2466 8.88963,3.8646 12.3033,7.4701 -0.86163,12.0154 -11.54583,18.6884 -23.49444,22.416 -0.17278,-1.4253 -0.26894,-2.8791 -0.26894,-4.3589 0,-10.5274 4.52504,-19.8369 11.46008,-25.5272 z" /><polygon
       style="fill:#a45e43"
       points="233.357,53.292 228.17,12.696 195.362,12.696 182.755,53.292 "
       id="polygon2031"
       transform="translate(794.11882,1287.5444)" /><path
       style="fill:#85453d"
       d="M 1090.9668,1348.4464 H 938.73682 c -4.204,0 -7.611,-3.407 -7.611,-7.611 0,-4.204 3.408,-7.611 7.611,-7.611 h 152.22998 c 4.204,0 7.612,3.407 7.612,7.611 0,4.204 -3.408,7.611 -7.612,7.611 z"
       id="path2033" /></g><g
     id="g2051"
     transform="translate(744.246,-12.17847)"><path
       style="fill:#ffb4a9"
       d="m 1014.8518,1320.5374 v 91.338 c 25.222,0 45.669,-20.447 45.669,-45.669 0,-25.222 -20.446,-45.669 -45.669,-45.669 z"
       id="path2037" /><path
       style="fill:#ffd9d4"
       d="m 1030.0748,1366.2064 c 0,-25.222 -6.816,-45.669 -15.223,-45.669 -25.22198,0 -45.66898,20.447 -45.66898,45.669 0,25.222 20.447,45.669 45.66898,45.669 8.408,0 15.223,-20.446 15.223,-45.669 z"
       id="path2039" /><path
       id="path2041"
       style="fill:#ff5555;fill-opacity:1;stroke-width:1.35573"
       d="m 1026.7742,1327.1975 c -13.7655,1.892 -26.1776,5.8651 -36.23005,11.3368 2.53721,18.2345 34.41515,28.5801 69.60085,34.237 0.5088,-2.163 0.3482,-4.5881 0.3765,-6.8337 0.2811,-22.282 -13.2885,-30.9255 -33.7473,-38.7401 z"
       sodipodi:nodetypes="cccsc" /><polygon
       style="fill:#85453d"
       points="228.17,12.696 210.544,32.994 233.357,53.292 258.713,53.292 246.105,12.696 "
       id="polygon2043"
       transform="translate(794.11882,1287.5444)" /><path
       id="path2045"
       style="fill:#ff5555;fill-opacity:1;stroke-width:0.64131"
       d="m 980.44143,1336.1164 c 4.67462,1.2466 8.88963,3.8646 12.3033,7.4701 -0.86163,12.0154 -11.54583,18.6884 -23.49444,22.416 -0.17278,-1.4253 -0.26894,-2.8791 -0.26894,-4.3589 0,-10.5274 4.52504,-19.8369 11.46008,-25.5272 z" /><polygon
       style="fill:#a45e43"
       points="228.17,12.696 195.362,12.696 182.755,53.292 233.357,53.292 "
       id="polygon2047"
       transform="translate(794.11882,1287.5444)" /><path
       style="fill:#85453d"
       d="M 1090.9668,1348.4464 H 938.73682 c -4.204,0 -7.611,-3.407 -7.611,-7.611 0,-4.204 3.408,-7.611 7.611,-7.611 h 152.22998 c 4.204,0 7.612,3.407 7.612,7.611 0,4.204 -3.408,7.611 -7.612,7.611 z"
       id="path2049" /></g></g><path
   style="fill:none;stroke:#c27749;stroke-width:15;stroke-linecap:round;stroke-linejoin:miter;stroke-miterlimit:4;stroke-dasharray:none;stroke-opacity:1"
   d="m 919.31916,2169.8655 27.99343,92.6991 -4.13217,92.2164"
   id="path2146" /><path
   style="fill:none;stroke:#a45e43;stroke-width:15;stroke-linecap:round;stroke-linejoin:miter;stroke-miterlimit:4;stroke-dasharray:none;stroke-opacity:1"
   d="m 1024.5027,2180.1771 -12.0064,80.5896 0.5422,96.7934"
   id="path2148" /><path
   style="fill:none;stroke:#c27749;stroke-width:15;stroke-linecap:round;stroke-linejoin:miter;stroke-miterlimit:4;stroke-dasharray:none;stroke-opacity:1"
   d="m 1185.7453,2186.9763 -10.0676,77.5173 23.6033,89.3693"
   id="path2150" /><path
   style="fill:none;stroke:#a45e43;stroke-width:15;stroke-linecap:round;stroke-linejoin:miter;stroke-miterlimit:4;stroke-dasharray:none;stroke-opacity:1"
   d="m 1250.7412,2189.0963 v 60.4999 l 7.2392,43.6993"
   id="path2152" /><path
   style="fill:none;stroke:#c27749;stroke-width:15;stroke-linecap:round;stroke-linejoin:miter;stroke-miterlimit:4;stroke-dasharray:none;stroke-opacity:1"
   d="m 1448.2463,2157.5061 12.0101,77.1279 -1.13,113.7977"
   id="path2154" /><path
   style="fill:none;stroke:#a45e43;stroke-width:15;stroke-linecap:round;stroke-linejoin:miter;stroke-miterlimit:4;stroke-dasharray:none;stroke-opacity:1"
   d="m 1512.5916,2139.0927 -17.9648,79.3578 13.1383,49.3496"
   id="path2156" /><path
   style="fill:none;stroke:#c27749;stroke-width:15;stroke-linecap:round;stroke-linejoin:miter;stroke-miterlimit:4;stroke-dasharray:none;stroke-opacity:1"
   d="m 1688.9843,2180.8772 16.4238,72.9079 v 97.4259"
   id="path2158" /><path
   style="fill:none;stroke:#a45e43;stroke-width:15;stroke-linecap:round;stroke-linejoin:miter;stroke-miterlimit:4;stroke-dasharray:none;stroke-opacity:1"
   d="m 1747.7638,2164.5398 10.1303,86.7991 -10.4621,98.251"
   id="path2160" /><path
   style="fill:#60312c;stroke-width:0.676104"
   d="m 1004.0355,2370.8696 v -52.866 h 17.3974 v 50.741 c 6.1656,20.7362 -23.81605,19.2382 -17.3974,2.125 z"
   id="path2162"
   sodipodi:nodetypes="ccccc" /><path
   style="fill:#85453d;fill-opacity:1;stroke-width:0.676104"
   d="m 935.93443,2353.0697 2.40028,-52.8115 17.37944,0.7899 -2.30376,50.6886 c 5.21776,20.9948 -24.66485,18.1371 -17.47596,1.333 z"
   id="path2164"
   sodipodi:nodetypes="ccccc" /><path
   style="fill:#85453d;stroke-width:0.777024"
   d="m 1217.6381,2364.5409 -11.739,-5.3273 v -47.9289 h -25.3445 v 46.0024 c 0,2.97 1.3966,5.6074 3.4657,6.5466 l 30.4124,13.8014 c 2.6545,1.2048 5.5268,-0.7489 6.4119,-4.3654 0.8851,-3.6155 -0.5508,-7.5239 -3.2065,-8.7288 z"
   id="path2166" /><path
   style="fill:#60312c;stroke-width:0.74531"
   d="m 1241.5413,2324.8369 3.7169,-1.876 v -52.866 h 21.1413 v 50.741 c 0,3.276 -1.1649,6.185 -2.8908,7.221 l -19.2928,11.223 c -2.2142,1.329 -4.61,-0.826 -5.3483,-4.815 -0.7388,-3.988 0.4011,-8.4809 2.6737,-9.628 z"
   id="path2168"
   sodipodi:nodetypes="scccscccs" /><path
   style="fill:#85453d;fill-opacity:1;stroke-width:0.676104"
   d="m 1451.0286,2349.4759 v -52.866 h 17.3974 v 50.741 c 6.1656,20.7362 -23.8159,19.2382 -17.3974,2.125 z"
   id="path2170"
   sodipodi:nodetypes="ccccc" /><path
   style="fill:#60312c;stroke-width:0.774216"
   d="m 1489.5373,2299.3841 7.6681,-6.8066 -10.1528,-51.4632 22.6477,-3.9893 9.7448,49.3947 c 0.6291,3.189 -0.06,6.2407 -1.71,7.5749 l -22.5588,18.8445 c -2.1168,1.7116 -5.0972,0.066 -6.6542,-3.6781 -1.5573,-3.7427 -0.9831,-8.1031 1.0152,-9.8769 z"
   id="path2172"
   sodipodi:nodetypes="scccscccs" /><path
   style="fill:#85453d;fill-opacity:1;stroke-width:0.676104"
   d="m 1697.8399,2353.506 v -52.866 h 17.3974 v 50.741 c 6.1656,20.7362 -23.8159,19.2382 -17.3974,2.125 z"
   id="path2174"
   sodipodi:nodetypes="ccccc" /><path
   style="fill:#60312c;stroke-width:0.74531"
   d="m 1762.1967,2356.3357 -3.4904,-2.2699 5.7609,-52.5511 -21.0154,-2.3038 -5.5293,50.4388 c -0.357,3.2565 0.484,6.2751 2.0867,7.493 l 17.9549,13.2585 c 2.0562,1.5624 4.6726,-0.3187 5.8412,-4.2035 1.169,-3.8837 0.5254,-8.4741 -1.6086,-9.862 z"
   id="path2176"
   sodipodi:nodetypes="scccscccs" /><path
   style="fill:#85453d;fill-opacity:1"
   d="m 954.93227,2111.6451 15.22298,91.338 c 25.22201,0 45.66905,-20.447 45.66905,-45.669 z"
   id="path2178" /><path
   style="fill:#85453d;fill-opacity:1"
   d="m 924.48627,2157.3141 c 0,25.222 20.447,45.669 45.66898,45.669 v -91.338 z"
   id="path2180" /><polygon
   style="fill:#85453d;fill-opacity:1"
   points="266.402,246.127 205.51,215.681 220.733,276.573 266.402,276.573 "
   id="polygon2182"
   transform="translate(749.42228,1880.7411)" /><polygon
   style="fill:#85453d;fill-opacity:1"
   points="175.064,246.127 220.733,215.681 220.733,276.573 175.064,276.573 "
   id="polygon2184"
   transform="translate(749.42228,1880.7411)" /><polygon
   style="fill:#85453d;fill-opacity:1"
   points="190.287,200.446 220.733,246.107 251.179,246.115 266.402,200.451 251.179,154.786 220.733,154.777 "
   id="polygon2186"
   transform="translate(749.42228,1880.7411)" /><polygon
   style="fill:#85453d;fill-opacity:1"
   points="220.733,154.777 190.287,154.786 175.064,200.451 190.287,246.115 220.733,246.107 "
   id="polygon2188"
   transform="translate(749.42228,1880.7411)" /><path
   style="color:#000000;fill:#85453d;stroke-width:15;stroke-linecap:round;fill-opacity:1"
   d="m 919.98437,2046.916 a 7.5,7.5 0 0 0 -5.2207,2.3848 l -44.76953,48.0918 -16.50977,80.4648 a 7.5,7.5 0 0 0 5.83985,8.8535 7.5,7.5 0 0 0 8.85351,-5.8398 l 15.66407,-76.3398 41.90039,-45.0098 a 7.5,7.5 0 0 0 -0.37891,-10.5996 7.5,7.5 0 0 0 -5.37891,-2.0059 z"
   id="path2504" /><path
   style="fill:#85453d;fill-opacity:1"
   d="m 929.56727,2035.5301 c -11.21,0 -20.297,9.087 -20.297,20.297 l -0.006,135.521 h 30.44601 v -155.818 z"
   id="path2192" /><path
   style="fill:#85453d;fill-opacity:1"
   d="m 1010.7503,2035.5301 h -10.149 v 155.818 h 30.446 v -135.52 c 0,-11.209 -9.087,-20.298 -20.297,-20.298 z"
   id="path2194" /><g
   id="g2563"><path
     style="fill:#ff5555;fill-opacity:1"
     d="m 970.15525,1913.7341 v 91.338 c 25.22201,0 45.66905,-20.447 45.66905,-45.669 0,-25.222 -20.44604,-45.669 -45.66905,-45.669 z"
     id="path2196" /><path
     style="fill:#ff5555;fill-opacity:1"
     d="m 985.37826,1959.4031 c 0,-25.222 -6.816,-45.669 -15.223,-45.669 -25.22198,0 -45.66898,20.447 -45.66898,45.669 0,25.222 20.447,45.669 45.66898,45.669 8.408,0 15.223,-20.446 15.223,-45.669 z"
     id="path2198" /><path
     id="path2200"
     style="fill:#ff5555;fill-opacity:1;stroke-width:1.35573"
     d="m 982.07766,1920.3942 c -13.7655,1.892 -26.1776,5.8651 -36.23005,11.3368 2.5372,18.2345 34.41514,28.5801 69.60089,34.237 0.5088,-2.163 0.3482,-4.5881 0.3765,-6.8337 0.2811,-22.282 -13.2885,-30.9255 -33.74734,-38.7401 z"
     sodipodi:nodetypes="cccsc" /><path
     id="path2204"
     style="fill:#ff5555;fill-opacity:1;stroke-width:0.64131"
     d="m 935.74488,1929.3131 c 4.67462,1.2466 8.88963,3.8646 12.3033,7.4701 -0.86163,12.0154 -11.54583,18.6884 -23.49444,22.416 -0.17278,-1.4253 -0.26894,-2.8791 -0.26894,-4.3589 0,-10.5274 4.52504,-19.8369 11.46008,-25.5272 z" /></g><polygon
   style="fill:#85453d"
   points="258.713,53.292 246.105,12.696 228.17,12.696 210.544,32.994 233.357,53.292 "
   id="polygon2202"
   transform="translate(749.42228,1880.7411)" /><polygon
   style="fill:#a45e43"
   points="233.357,53.292 228.17,12.696 195.362,12.696 182.755,53.292 "
   id="polygon2206"
   transform="translate(749.42228,1880.7411)" /><path
   style="fill:#85453d"
   d="M 1046.2703,1941.6431 H 894.04027 c -4.204,0 -7.611,-3.407 -7.611,-7.611 0,-4.204 3.408,-7.611 7.611,-7.611 h 152.23003 c 4.204,0 7.612,3.407 7.612,7.611 0,4.204 -3.408,7.611 -7.612,7.611 z"
   id="path2208" /><path
   style="color:#000000;fill:#85453d;stroke-width:15;stroke-linecap:round;fill-opacity:1"
   d="m 1021.0996,2046.916 a 7.5,7.5 0 0 0 -5.3789,2.0059 7.5,7.5 0 0 0 -0.3789,10.5996 l 41.9023,45.0098 15.6622,76.3398 a 7.5,7.5 0 0 0 8.8535,5.8398 7.5,7.5 0 0 0 5.8398,-8.8535 l -16.5078,-80.4648 -44.7715,-48.0918 a 7.5,7.5 0 0 0 -5.2207,-2.3848 z"
   id="path2498" /><path
   style="fill:#85453d;fill-opacity:1"
   d="m 1200.4618,2111.6451 15.223,91.338 c 25.222,0 45.669,-20.447 45.669,-45.669 z"
   id="path2214" /><path
   style="fill:#85453d;fill-opacity:1"
   d="m 1170.0158,2157.3141 c 0,25.222 20.447,45.669 45.669,45.669 v -91.338 z"
   id="path2216" /><polygon
   style="fill:#85453d;fill-opacity:1"
   points="205.51,215.681 220.733,276.573 266.402,276.573 266.402,246.127 "
   id="polygon2218"
   transform="translate(994.95176,1880.7411)" /><polygon
   style="fill:#85453d;fill-opacity:1"
   points="220.733,215.681 220.733,276.573 175.064,276.573 175.064,246.127 "
   id="polygon2220"
   transform="translate(994.95176,1880.7411)" /><polygon
   style="fill:#85453d;fill-opacity:1"
   points="220.733,246.107 251.179,246.115 266.402,200.451 251.179,154.786 220.733,154.777 190.287,200.446 "
   id="polygon2222"
   transform="translate(994.95176,1880.7411)" /><polygon
   style="fill:#85453d;fill-opacity:1"
   points="190.287,154.786 175.064,200.451 190.287,246.115 220.733,246.107 220.733,154.777 "
   id="polygon2224"
   transform="translate(994.95176,1880.7411)" /><path
   style="color:#000000;fill:#85453d;stroke-width:15;stroke-linecap:round;fill-opacity:1"
   d="m 1165.5137,2046.916 a 7.5,7.5 0 0 0 -5.2207,2.3848 l -44.7696,48.0918 -16.5097,80.4648 a 7.5,7.5 0 0 0 5.8398,8.8535 7.5,7.5 0 0 0 8.8555,-5.8398 l 15.6621,-76.3398 41.9004,-45.0098 a 7.5,7.5 0 0 0 -0.3789,-10.5996 7.5,7.5 0 0 0 -5.3789,-2.0059 z"
   id="path2510" /><path
   style="fill:#85453d;fill-opacity:1"
   d="m 1175.0968,2035.5301 c -11.21,0 -20.297,9.087 -20.297,20.297 l -0.01,135.521 h 30.446 v -155.818 z"
   id="path2228" /><path
   style="fill:#85453d;fill-opacity:1"
   d="m 1256.2798,2035.5301 h -10.149 v 155.818 h 30.446 v -135.52 c 0,-11.209 -9.087,-20.298 -20.297,-20.298 z"
   id="path2230" /><path
   style="fill:#85453d"
   d="m 1291.7998,1941.6431 h -152.23 c -4.204,0 -7.611,-3.407 -7.611,-7.611 0,-4.204 3.408,-7.611 7.611,-7.611 h 152.23 c 4.204,0 7.612,3.407 7.612,7.611 0,4.204 -3.408,7.611 -7.612,7.611 z"
   id="path2232" /><path
   style="color:#000000;fill:#85453d;stroke-width:15;stroke-linecap:round;fill-opacity:1"
   d="m 1266.6289,2046.916 a 7.5,7.5 0 0 0 -5.3789,2.0059 7.5,7.5 0 0 0 -0.3789,10.5996 l 41.9023,45.0098 15.6621,76.3398 a 7.5,7.5 0 0 0 8.8536,5.8398 7.5,7.5 0 0 0 5.8398,-8.8535 l -16.5078,-80.4648 -44.7695,-48.0918 a 7.5,7.5 0 0 0 -5.2227,-2.3848 z"
   id="path2492" /><path
   style="fill:#85453d;fill-opacity:1"
   d="m 1492.7231,2084.629 -15.223,91.338 c -25.222,0 -45.669,-20.447 -45.669,-45.669 z"
   id="path2236" /><path
   style="fill:#85453d;fill-opacity:1"
   d="m 1523.1691,2130.298 c 0,25.222 -20.447,45.669 -45.669,45.669 v -91.338 z"
   id="path2238" /><polygon
   style="fill:#85453d;fill-opacity:1"
   points="266.402,276.573 266.402,246.127 205.51,215.681 220.733,276.573 "
   id="polygon2240"
   transform="matrix(-1,0,0,1,1698.2331,1853.725)" /><polygon
   style="fill:#85453d;fill-opacity:1"
   points="175.064,276.573 175.064,246.127 220.733,215.681 220.733,276.573 "
   id="polygon2242"
   transform="matrix(-1,0,0,1,1698.2331,1853.725)" /><polygon
   style="fill:#85453d;fill-opacity:1"
   points="266.402,200.451 251.179,154.786 220.733,154.777 190.287,200.446 220.733,246.107 251.179,246.115 "
   id="polygon2244"
   transform="matrix(-1,0,0,1,1698.2331,1853.725)" /><polygon
   style="fill:#85453d;fill-opacity:1"
   points="190.287,246.115 220.733,246.107 220.733,154.777 190.287,154.786 175.064,200.451 "
   id="polygon2246"
   transform="matrix(-1,0,0,1,1698.2331,1853.725)" /><path
   style="color:#000000;fill:#85453d;stroke-width:15;stroke-linecap:round;fill-opacity:1"
   d="m 1527.6699,2019.9004 a 7.5,7.5 0 0 0 -5.3769,2.0059 7.5,7.5 0 0 0 -0.3789,10.5996 l 41.9004,45.0097 15.6621,76.3399 a 7.5,7.5 0 0 0 8.8535,5.8398 7.5,7.5 0 0 0 5.8398,-8.8535 l -16.5078,-80.4648 -44.7695,-48.0918 a 7.5,7.5 0 0 0 -5.2227,-2.3848 z"
   id="path2522" /><path
   style="fill:#85453d;fill-opacity:1"
   d="m 1518.0881,2008.514 c 11.21,0 20.297,9.087 20.297,20.297 l 0.01,135.521 h -30.446 v -155.818 z"
   id="path2250" /><path
   style="fill:#85453d;fill-opacity:1"
   d="m 1436.9051,2008.514 h 10.149 v 155.818 h -30.446 v -135.52 c 0,-11.209 9.087,-20.298 20.297,-20.298 z"
   id="path2252" /><path
   style="fill:#85453d"
   d="m 1401.3851,1914.627 h 152.23 c 4.204,0 7.611,-3.407 7.611,-7.611 0,-4.204 -3.408,-7.611 -7.611,-7.611 h -152.23 c -4.204,0 -7.612,3.407 -7.612,7.611 0,4.204 3.408,7.611 7.612,7.611 z"
   id="path2254" /><path
   style="color:#000000;fill:#85453d;stroke-width:15;stroke-linecap:round;fill-opacity:1"
   d="m 1426.5547,2019.9004 a 7.5,7.5 0 0 0 -5.2207,2.3848 l -44.7695,48.0918 -16.5079,80.4648 a 7.5,7.5 0 0 0 5.8379,8.8535 7.5,7.5 0 0 0 8.8555,-5.8398 l 15.6621,-76.3399 41.9004,-45.0097 a 7.5,7.5 0 0 0 -0.3789,-10.5996 7.5,7.5 0 0 0 -5.3789,-2.0059 z"
   id="path2516" /><path
   style="fill:#85453d;fill-opacity:1"
   d="m 1698.5447,2098.629 15.223,91.338 c 25.222,0 45.669,-20.447 45.669,-45.669 z"
   id="path2258" /><path
   style="fill:#85453d;fill-opacity:1"
   d="m 1668.0987,2144.298 c 0,25.222 20.447,45.669 45.669,45.669 v -91.338 z"
   id="path2260" /><polygon
   style="fill:#85453d;fill-opacity:1"
   points="220.733,276.573 266.402,276.573 266.402,246.127 205.51,215.681 "
   id="polygon2262"
   transform="translate(1493.0347,1867.725)" /><polygon
   style="fill:#85453d;fill-opacity:1"
   points="220.733,276.573 175.064,276.573 175.064,246.127 220.733,215.681 "
   id="polygon2264"
   transform="translate(1493.0347,1867.725)" /><polygon
   style="fill:#85453d;fill-opacity:1"
   points="251.179,154.786 220.733,154.777 190.287,200.446 220.733,246.107 251.179,246.115 266.402,200.451 "
   id="polygon2266"
   transform="translate(1493.0347,1867.725)" /><polygon
   style="fill:#85453d;fill-opacity:1"
   points="220.733,154.777 190.287,154.786 175.064,200.451 190.287,246.115 220.733,246.107 "
   id="polygon2268"
   transform="translate(1493.0347,1867.725)" /><path
   style="color:#000000;fill:#85453d;stroke-width:15;stroke-linecap:round;fill-opacity:1"
   d="m 1663.5977,2033.9004 a 7.5,7.5 0 0 0 -5.2227,2.3848 l -44.7695,48.0918 -16.5078,80.4648 a 7.5,7.5 0 0 0 5.8398,8.8535 7.5,7.5 0 0 0 8.8535,-5.8398 l 15.6621,-76.3399 41.9024,-45.0097 a 7.5,7.5 0 0 0 -0.3809,-10.5996 7.5,7.5 0 0 0 -5.3769,-2.0059 z"
   id="path2528" /><path
   style="fill:#85453d;fill-opacity:1"
   d="m 1673.1797,2022.514 c -11.21,0 -20.297,9.087 -20.297,20.297 l -0.01,135.521 h 30.446 v -155.818 z"
   id="path2272" /><path
   style="fill:#85453d;fill-opacity:1"
   d="m 1754.3627,2022.514 h -10.149 v 155.818 h 30.446 v -135.52 c 0,-11.209 -9.087,-20.298 -20.297,-20.298 z"
   id="path2274" /><path
   style="fill:#85453d"
   d="m 1789.8827,1928.627 h -152.23 c -4.204,0 -7.611,-3.407 -7.611,-7.611 0,-4.204 3.408,-7.611 7.611,-7.611 h 152.23 c 4.204,0 7.612,3.407 7.612,7.611 0,4.204 -3.408,7.611 -7.612,7.611 z"
   id="path2276" /><path
   style="color:#000000;fill:#85453d;stroke-width:15;stroke-linecap:round;fill-opacity:1"
   d="m 1764.7129,2033.9004 a 7.5,7.5 0 0 0 -5.3789,2.0059 7.5,7.5 0 0 0 -0.3789,10.5996 l 41.9004,45.0097 15.6621,76.3399 a 7.5,7.5 0 0 0 8.8554,5.8398 7.5,7.5 0 0 0 5.8399,-8.8535 l -16.5098,-80.4648 -44.7695,-48.0918 a 7.5,7.5 0 0 0 -5.2207,-2.3848 z"
   id="path2534" /><g
   id="g2590"><path
     style="fill:#ff5555;fill-opacity:1"
     d="m 1215.648,1914.3056 v 91.338 c 25.222,0 45.669,-20.447 45.669,-45.669 0,-25.222 -20.446,-45.669 -45.669,-45.669 z"
     id="path2280" /><path
     style="fill:#ff5555;fill-opacity:1"
     d="m 1230.871,1959.9746 c 0,-25.222 -6.816,-45.669 -15.223,-45.669 -25.222,0 -45.669,20.447 -45.669,45.669 0,25.222 20.447,45.669 45.669,45.669 8.408,0 15.223,-20.446 15.223,-45.669 z"
     id="path2282" /><path
     id="path2284"
     style="fill:#ff5555;fill-opacity:1;stroke-width:1.35573"
     d="m 1227.5704,1920.9657 c -13.7655,1.892 -26.1776,5.8651 -36.23,11.3368 2.5372,18.2345 34.4151,28.5801 69.6008,34.237 0.5088,-2.163 0.3482,-4.5881 0.3765,-6.8337 0.2811,-22.282 -13.2885,-30.9255 -33.7473,-38.7401 z"
     sodipodi:nodetypes="cccsc" /><path
     id="path2288"
     style="fill:#ff5555;fill-opacity:1;stroke-width:0.64131"
     d="m 1181.2376,1929.8846 c 4.6746,1.2466 8.8897,3.8646 12.3033,7.4701 -0.8616,12.0154 -11.5458,18.6884 -23.4944,22.416 -0.1728,-1.4253 -0.269,-2.8791 -0.269,-4.3589 0,-10.5274 4.5251,-19.8369 11.4601,-25.5272 z" /></g><polygon
   style="fill:#85453d"
   points="246.105,12.696 228.17,12.696 210.544,32.994 233.357,53.292 258.713,53.292 "
   id="polygon2286"
   transform="translate(994.91502,1881.3126)" /><polygon
   style="fill:#a45e43"
   points="228.17,12.696 195.362,12.696 182.755,53.292 233.357,53.292 "
   id="polygon2290"
   transform="translate(994.91502,1881.3126)" /><path
   style="fill:#85453d"
   d="m 1291.763,1942.2146 h -152.23 c -4.204,0 -7.611,-3.407 -7.611,-7.611 0,-4.204 3.408,-7.611 7.611,-7.611 h 152.23 c 4.204,0 7.612,3.407 7.612,7.611 0,4.204 -3.408,7.611 -7.612,7.611 z"
   id="path2292" /><path
   id="path2296"
   style="fill:#ff5555;fill-opacity:1"
   d="M 1479.0293 1887.6367 C 1465.3286 1887.6367 1453.0466 1893.6777 1444.6758 1903.2324 C 1444.6567 1903.2273 1444.6383 1903.2199 1444.6191 1903.2148 C 1437.6841 1908.9051 1433.1602 1918.2148 1433.1602 1928.7422 C 1433.1602 1930.0427 1433.2436 1931.3195 1433.3789 1932.5781 C 1433.3751 1932.8209 1433.3613 1933.061 1433.3613 1933.3047 C 1433.3613 1958.5267 1453.8073 1978.9746 1479.0293 1978.9746 C 1502.0276 1978.9746 1521.0481 1961.971 1524.2246 1939.8516 C 1524.2574 1939.8568 1524.2894 1939.8639 1524.3223 1939.8691 C 1524.8094 1937.7981 1524.686 1935.4941 1524.6992 1933.3301 C 1524.6993 1933.3218 1524.6992 1933.313 1524.6992 1933.3047 C 1524.6992 1933.2975 1524.6992 1933.2904 1524.6992 1933.2832 C 1524.6998 1933.2026 1524.6982 1933.1173 1524.6992 1933.0371 C 1524.7813 1926.5345 1523.6764 1921.1991 1521.5723 1916.7012 C 1514.9281 1899.6921 1498.3919 1887.6367 1479.0293 1887.6367 z " /><polygon
   style="fill:#85453d"
   points="246.105,12.696 228.17,12.696 210.544,32.994 233.357,53.292 258.713,53.292 "
   id="polygon2302"
   transform="translate(1258.2967,1854.6431)" /><polygon
   style="fill:#a45e43"
   points="228.17,12.696 195.362,12.696 182.755,53.292 233.357,53.292 "
   id="polygon2306"
   transform="translate(1258.2967,1854.6431)" /><path
   style="fill:#85453d"
   d="m 1555.1447,1915.5451 h -152.23 c -4.204,0 -7.611,-3.407 -7.611,-7.611 0,-4.204 3.408,-7.611 7.611,-7.611 h 152.23 c 4.204,0 7.612,3.407 7.612,7.611 0,4.204 -3.408,7.611 -7.612,7.611 z"
   id="path2308" /><path
   id="path2312"
   style="fill:#ff5555;fill-opacity:1"
   d="M 1714.4004 1901.5547 C 1700.6996 1901.5547 1688.4177 1907.5976 1680.0469 1917.1523 C 1680.0277 1917.1472 1680.0094 1917.1399 1679.9902 1917.1348 C 1673.0551 1922.8251 1668.5312 1932.1347 1668.5312 1942.6621 C 1668.5313 1943.9626 1668.6148 1945.2394 1668.75 1946.498 C 1668.7462 1946.7409 1668.7324 1946.9809 1668.7324 1947.2246 C 1668.7324 1972.4466 1689.1784 1992.8945 1714.4004 1992.8945 C 1737.3987 1992.8945 1756.4191 1975.8908 1759.5957 1953.7715 C 1759.6292 1953.7769 1759.6618 1953.7837 1759.6953 1953.7891 C 1760.1842 1951.7106 1760.056 1949.3953 1760.0703 1947.2246 C 1760.0703 1947.2174 1760.0703 1947.2103 1760.0703 1947.2031 C 1760.0709 1947.1219 1760.0693 1947.0358 1760.0703 1946.9551 C 1760.1523 1940.459 1759.0493 1935.1299 1756.9492 1930.6348 C 1750.3088 1913.618 1733.7686 1901.5547 1714.4004 1901.5547 z " /><polygon
   style="fill:#85453d"
   points="228.17,12.696 210.544,32.994 233.357,53.292 258.713,53.292 246.105,12.696 "
   id="polygon2318"
   transform="translate(1493.6683,1868.5626)" /><polygon
   style="fill:#a45e43"
   points="195.362,12.696 182.755,53.292 233.357,53.292 228.17,12.696 "
   id="polygon2322"
   transform="translate(1493.6683,1868.5626)" /><path
   style="fill:#85453d"
   d="m 1790.5163,1929.4646 h -152.23 c -4.204,0 -7.611,-3.407 -7.611,-7.611 0,-4.204 3.408,-7.611 7.611,-7.611 h 152.23 c 4.2039,0 7.612,3.407 7.612,7.611 0,4.204 -3.408,7.611 -7.612,7.611 z"
   id="path2324" /><path
   style="fill:#d40000;stroke:none;stroke-width:1px;stroke-linecap:butt;stroke-linejoin:miter;stroke-opacity:1"
   d="m -783.8827,1522.6876 73.12863,-95.9876 476.12732,-41.4044 -83.11895,172.0733 z"
   id="path2395"
   sodipodi:nodetypes="ccccc" /><polygon
   style="fill:#a45e43"
   points="258.791,446.024 258.791,286.35 243.568,286.35 243.568,425.726 "
   id="polygon2330"
   transform="rotate(-51.384203,1098.4953,1818.9883)" /><path
   style="fill:#60312c;stroke-width:0.676104"
   d="m -482.2988,1659.4561 0.4375,-9.9629 -41.30676,-32.9934 10.85764,-13.5935 39.6464,31.6672 c 2.5597,2.0446 4.2344,4.609 4.1575,6.3653 l -1.13362,25.8114 c -0.0987,2.2531 -3.01297,2.4486 -6.50892,0.4338 -3.49544,-2.0139 -6.24876,-5.4744 -6.14974,-7.7279 z"
   id="path2332" /><polygon
   style="fill:#c27749"
   points="182.676,446.024 182.676,286.35 197.899,286.35 197.899,425.726 "
   id="polygon2334"
   transform="rotate(-51.384203,1098.4953,1818.9883)" /><path
   style="fill:#85453d;stroke-width:0.655343"
   d="m -521.21276,1708.4876 0.13341,-9.5823 -41.30677,-32.9934 10.20054,-12.7708 39.64641,31.6672 c 2.55969,2.0446 4.27057,4.5637 4.24727,6.2529 l -0.34581,24.8251 c -0.03,2.167 -2.8698,2.2694 -6.34281,0.2258 -3.47224,-2.0429 -6.26275,-5.4569 -6.23224,-7.6245 z"
   id="path2336" /><path
   style="fill:#a45e43"
   d="m -699.6596,1525.6054 80.86739,45.1091 c 15.74093,-19.7071 12.52557,-48.4442 -7.1816,-64.1852 z"
   id="path2338" /><path
   style="fill:#c27749"
   d="m -682.97741,1577.8961 c 19.70717,15.741 48.44428,12.5256 64.1852,-7.1816 L -690.159,1513.711 Z"
   id="path2340" /><polygon
   style="fill:#60312c"
   points="205.51,215.681 220.733,276.573 266.402,276.573 266.402,246.127 "
   id="polygon2342"
   transform="rotate(-51.384203,1098.4953,1818.9883)" /><polygon
   style="fill:#85453d"
   points="220.733,215.681 220.733,276.573 175.064,276.573 175.064,246.127 "
   id="polygon2344"
   transform="rotate(-51.384203,1098.4953,1818.9883)" /><polygon
   style="fill:#ffe2a8"
   points="220.733,154.777 190.287,200.446 220.733,246.107 251.179,246.115 266.402,200.451 251.179,154.786 "
   id="polygon2346"
   transform="rotate(-51.384203,1098.4953,1818.9883)" /><polygon
   style="fill:#fff0d3"
   points="175.064,200.451 190.287,246.115 220.733,246.107 220.733,154.777 190.287,154.786 "
   id="polygon2348"
   transform="rotate(-51.384203,1098.4953,1818.9883)" /><path
   style="fill:none;stroke:#85453d;stroke-width:15;stroke-linecap:round;stroke-linejoin:miter;stroke-miterlimit:4;stroke-dasharray:none;stroke-opacity:1"
   d="m -772.6303,1510.919 -61.64065,-15.6628 -76.49741,23.5343"
   id="path2350"
   inkscape:transform-center-x="74.391822"
   inkscape:transform-center-y="-4.727939" /><path
   style="fill:#a45e43"
   d="m -774.96211,1497.9213 c -6.9961,8.7589 -5.56714,21.5302 3.19177,28.5263 l 105.88537,84.5827 19.0012,-23.7889 -121.74814,-97.2453 z"
   id="path2352" /><path
   style="fill:#85453d"
   d="m -724.2962,1434.4891 -6.33394,7.9299 121.74814,97.2453 19.0012,-23.789 -105.88833,-84.5773 c -8.75814,-6.9955 -21.53097,-5.5678 -28.52707,3.1911 z"
   id="path2354" /><circle
   style="fill:#ff5555;stroke:none"
   id="circle2356"
   cx="-1566.3689"
   cy="268.63742"
   r="19.786329"
   transform="rotate(-51.384203)" /><path
   style="fill:#ffb4a9"
   d="m -844.79645,1390.1957 71.3668,57.0036 c 15.74093,-19.7072 12.52557,-48.4443 -7.1816,-64.1852 -19.70717,-15.7409 -48.44365,-12.5264 -64.1852,7.1816 z"
   id="path2358" /><path
   style="fill:#ffd9d4"
   d="m -799.61245,1406.803 c -19.70717,-15.7409 -39.93724,-23.1761 -45.184,-16.6073 -15.74093,19.7072 -12.52557,48.4443 7.1816,64.1852 19.70717,15.7409 48.44428,12.5255 64.1852,-7.1816 5.24739,-6.5696 -6.47485,-24.6547 -26.1828,-40.3963 z"
   id="path2360" /><path
   id="path2362"
   style="fill:#ff5555"
   d="m -844.79569,1390.1956 c -7.44462,9.3205 -10.64348,20.6599 -9.86891,31.6899 23.85602,16.0382 58.89243,-15.3092 77.84157,-35.475 -1.18848,-1.1857 -2.44665,-2.3242 -3.78892,-3.3963 -19.70717,-15.7409 -48.44219,-12.5265 -64.18374,7.1814 z"
   sodipodi:nodetypes="sccss" /><polygon
   style="fill:#85453d"
   points="258.713,53.292 246.105,12.696 228.17,12.696 210.544,32.994 233.357,53.292 "
   id="polygon2364"
   transform="rotate(-51.384203,1098.4953,1818.9883)" /><polygon
   style="fill:#a45e43"
   points="182.755,53.292 233.357,53.292 228.17,12.696 195.362,12.696 "
   id="polygon2366"
   transform="rotate(-51.384203,1098.4953,1818.9883)" /><path
   style="fill:#85453d"
   d="m -775.4868,1348.1412 -95.00599,118.9447 c -2.6237,3.2848 -7.41205,3.8205 -10.69683,1.1968 -3.28479,-2.6237 -3.81993,-7.4128 -1.19686,-10.6968 l 95.00599,-118.9447 c 2.62369,-3.2847 7.41266,-3.8213 10.69745,-1.1976 3.28479,2.6237 3.81993,7.4128 1.19624,10.6976 z"
   id="path2368" /><path
   style="fill:none;stroke:#85453d;stroke-width:15;stroke-linecap:round;stroke-linejoin:miter;stroke-miterlimit:4;stroke-dasharray:none;stroke-opacity:1"
   d="m -836.7497,1452.5739 60.03527,-20.9919 78.26199,16.7562"
   id="path2370"
   inkscape:transform-center-x="54.530503"
   inkscape:transform-center-y="-1.4777949" /><text
   xml:space="preserve"
   style="font-size:40px;line-height:1.25;font-family:sans-serif;letter-spacing:0px"
   x="-16.025076"
   y="-175.31934"
   id="text2642"><tspan
     sodipodi:role="line"
     id="tspan2640"
     x="-16.025076"
     y="-175.31934">&lt;div&gt;Icons made by &lt;a href=&quot;https://www.flaticon.com/authors/freepik&quot; title=&quot;Freepik&quot;&gt;Freepik&lt;/a&gt; from &lt;a href=&quot;https://www.flaticon.com/&quot; title=&quot;Flaticon&quot;&gt;www.flaticon.com&lt;/a&gt;&lt;/div&gt;</tspan></text><path
   style="fill:none;stroke:#000000;stroke-width:1px;stroke-linecap:butt;stroke-linejoin:miter;stroke-opacity:1;marker-end:url(#Arrow1Lend)"
   d="m 447.35766,-140.98942 -193.136,118.692656"
   id="path2644" /></svg>
